<svg xmlns="http://www.w3.org/2000/svg" viewBox="0 0 2000 2000"><defs><style>.cls-1{isolation:isolate;}.cls-2{fill:#c8dbfb;}.cls-3{fill:#f9c7ef;}.cls-33,.cls-4{fill:#fff;}.cls-20,.cls-4{opacity:0.2;}.cls-5{fill:#07085b;}.cls-24,.cls-6{fill:#06bfad;}.cls-7{fill:#02ccc0;}.cls-8{fill:#feb546;}.cls-9{fill:#55769f;}.cls-10{fill:#f4a640;}.cls-11{fill:#1c2072;}.cls-12{fill:#4d5296;}.cls-13{fill:#eaf5f9;}.cls-14,.cls-22,.cls-26,.cls-27{fill:#daeef7;}.cls-15,.cls-16{fill:#cae2ea;}.cls-16,.cls-26,.cls-33{opacity:0.5;}.cls-16,.cls-22,.cls-24,.cls-25,.cls-32{mix-blend-mode:multiply;}.cls-17{fill:#f3fcff;}.cls-18,.cls-25{fill:#b6d5e0;}.cls-19{fill:#d37300;}.cls-20{mix-blend-mode:screen;}.cls-21{fill:#be7ace;}.cls-23{fill:#b361c6;}.cls-24,.cls-27,.cls-32{opacity:0.3;}.cls-28{fill:#333;}.cls-29{fill:#ffc0bb;}.cls-30{fill:#fc8d84;opacity:0.6;}.cls-31,.cls-32{fill:#f99893;}.cls-34{fill:#ff5b7e;}</style></defs><g class="cls-1"><g id="Layer_1" data-name="Layer 1"><rect class="cls-2" width="2000" height="2000"/><path class="cls-3" d="M289.4,1081.8c7.1-136.3-45.4-232.9,27.8-336.2,45.3-64,220-145.1,265.3-209.1,15.2-21.4,30.7-43.2,50.1-58.9,53-43.2,122.4-33.1,186.1-29.3,47,2.8,94.4,1.2,140.6-10.2,117-28.8,217.1-117.9,327.3-174.1A646.8,646.8,0,0,1,1444,207.8c49.8-10.6,102.2-14.7,150,5.5s89.8,69.5,96,130.7c3.4,34.2-4.3,68.5-6.2,102.9s4.1,73.2,27.1,93.2c18.7,16.1,43.6,15.7,64.7,26.6,53.4,27.6,64.2,114.4,57.2,184.7s-22.9,146.1,4.6,208.5c7.6,17.3,18.2,32.4,25,50.3,8.1,21.3,10.2,45.2,11.3,68.7,6.5,130.9-13.1,263.7-56.7,383.7-7.3,19.9-15.5,40.1-28.5,55-16.3,18.5-38.3,27.2-56.6,42.7-20.4,17.4-35.5,42.8-55.6,60.9-37.4,33.8-86.7,38.3-133.2,41.5-129.4,9-260.9,17.7-387.1-18.6C1013.2,1603,878.1,1504.7,731.6,1514c-77,4.9-156.2,39.4-229.1,8.6-36-15.2-67.1-46.6-86.8-86.3-20.9-42.1-20.1-94.4-43-134.9-15.3-26.9-40.3-41.5-56.1-67.8C291.6,1192.2,286.8,1131.4,289.4,1081.8Z"/><path class="cls-4" d="M1858.5,1308.6a1005.6,1005.6,0,0,0,15.1-129.8c-73.4-13-148.5-19.3-218.6-44.5-2.5-9.2,6.9-17.1,15.4-21.3a147.9,147.9,0,0,1,105.2-9.9c12.2,3.5,24,8.5,36.3,11.9,20.5,5.8,41.7,7,63,5.4-.1-13.9-.5-27.7-1.2-41.5-.9-18.2-2.4-36.7-6.7-54-33.7.7-67.7,1.1-100.8-4.8-49.6-8.7-98.5-31.4-148.2-23.6-30.5,4.8-58,20.7-87.5,29.6-59.9,17.9-124.2,6-186.8,7.4-23.5.6-47.8,3.3-67.9,15.6s-34.4,36.4-28.9,59.2,28.5,37.6,50.1,47.7a471.1,471.1,0,0,0,124.7,38.1c57,9.1,115,7.6,172.3,13.8,13.7,1.5,28,3.8,38.9,12.2,9,6.8,14.6,17.1,21.6,25.9,25.2,31.3,67,43.3,106.5,50.8C1793.2,1302.8,1825.8,1307.1,1858.5,1308.6Z"/><path class="cls-5" d="M206.8,911.1c25.5-16.2,36.8,30.7,39.3,43.4a178.5,178.5,0,0,1,30,7.2c-8.6-13.3-22.9-17.5-25.8-27.4s.2-24.8,17.9-13.8c14.1,8.8,12.6,32.8,11.4,42.4a165.5,165.5,0,0,1,36,17.5c-7.8-16.7-23.9-23.5-26.1-35.1s3.1-27.2,21.5-12.5c15.2,12.2,9.8,40.1,7.4,49.4a106.3,106.3,0,0,1,12.3,9.6c8.5,8,16.3,16.1,23.4,24.2-6.6-14.9-19.2-23.5-19.9-34.3-.8-12.9,6.4-26.3,22.9-8.8,13,13.8,5.5,38.8,1.8,48.7a323.5,323.5,0,0,1,35.4,51.9c-1.3-15.2-13.1-36-10-50.2,2-9.3,7.7-11.6,12.2-11.9a11.9,11.9,0,0,1,10.1,4.7c15.1,18.2-4.3,51-10.5,60.5a336.7,336.7,0,0,1,24.3,57.9c-.7-7.9-1.7-19.7-2.5-25.9-1.2-9.6,1.6-23.3,8-28.8l.8-.7c5.2-3.8,12.1-2.4,16.4,2.8,17,20.5-13.9,52.4-20.8,59,0,.2.1.3.1.4,12.4,43.2,11.8,73.8,11.8,75l-4.2-.2c0-.3.6-29.4-10.5-70-39.1-4.3-50.7-29.6-45.8-39.1s20.1-13.6,27.7,4.6c4.3,10.6,11.1,20.6,15.9,27.2a320.6,320.6,0,0,0-24.4-59.1c-50.3,14.1-56-22.4-46-31.1s18.8-3.6,27.6,10.1a67.7,67.7,0,0,0,16.9,18.2,318.7,318.7,0,0,0-34.7-51.1c-5.9,8-22.2,27.3-38.8,19.6-20.8-9.6-13.5-22.9-3.1-27.7s23.5,7.6,39.9,5.6a327.4,327.4,0,0,0-26.6-27.8c-.1-.2-8.5-8.1-24.2-16.7-5,8.9-19,30.2-36.2,25-21.6-6.6-15.9-20.9-6.1-27.1s23.2,3.5,38.6.1a181.2,181.2,0,0,0-53.9-17.5c-5.2,9.2-19,29.6-35.8,24.5-21.6-6.6-15.9-20.9-6.1-27.1s23.5,3.8,39.2,0v-.5c-5.6-2.6-17.5-8.1-23.3-10.5-7.8-3.1-16.6-11.9-17.9-20.8A15.8,15.8,0,0,1,206.8,911.1Z"/><path class="cls-6" d="M241.8,1144.6l-62.9-1c-22-39.6-38.1-74-38.1-74,71.1-16.5,131.1-9.9,181.2,9.2l27.6,66.9,5.8-51.6c124.1,66.6,175.4,208.1,175.4,208.1s-219-22.9-265.5-44.4c-17.9-8.3-40.6-38.2-61.6-71.9C220.4,1169.9,241.8,1144.6,241.8,1144.6Z"/><path class="cls-7" d="M140.8,1069.6s281.4,117.8,390,232.6c0,0-219-22.9-265.5-44.4-17.9-8.3-40.6-38.2-61.6-71.9,16.7-16,38.1-41.3,38.1-41.3l-62.9-1C156.9,1104,140.8,1069.6,140.8,1069.6Z"/><path class="cls-8" d="M126,1143.4c12-19.9,35.8,8.6,41.9,16.5a141.2,141.2,0,0,1,23.2-5.3c-10.5-6.2-21.8-4.2-27.3-10.1s-8.3-17.1,7.7-15.6c12.7,1.2,19.9,18.3,22.4,25.3a127.7,127.7,0,0,1,30.8-.3c-11.1-8.8-24.5-8-30-15.3s-7.2-19.8,10.5-15.9c14.7,3.2,20.5,24.3,22.1,31.6a63.9,63.9,0,0,1,11.8,2.4,241,241,0,0,1,24.4,8.6c-9.6-8-21.3-9.6-25.5-16.8s-4.6-20.4,12.7-14c13.8,5.1,17.2,24.9,18,33a257.5,257.5,0,0,1,42.2,23.6c-6.1-10-21.4-20.3-24.1-31.1-1.8-7.2,1.4-10.7,4.3-12.4a9.3,9.3,0,0,1,8.6-.3c16.6,7.4,14.5,36.7,13.5,45.4a253.6,253.6,0,0,1,36.6,31.6c-3.1-5.2-7.9-13-10.5-17-4.2-6.2-6.9-16.6-4.4-22.6l.3-.8c2.2-4.4,7.5-5.8,12.3-3.6,18.7,8.2,8.3,40.9,5.9,47.8,0,.1.1.1.1.2,23.4,25.5,33.5,46.8,33.9,47.7l-3,1.3c-.1-.3-9.6-20.5-31.2-44.6-28.5,10.3-45.1-3.1-45-11.4s9.2-16.3,20.7-6.3a95.8,95.8,0,0,0,20.3,13.3,263.2,263.2,0,0,0-37.1-32.4c-29.9,27-46.4,3.8-42.4-5.7s11.7-8.9,22.5-2.4a53.5,53.5,0,0,0,17.8,6.7,244.1,244.1,0,0,0-41.4-23.3c-1.3,7.5-6,26.4-20,26.8-17.7.5-17.2-11.2-11.6-18s18.7-2.9,29.4-9.8a252.9,252.9,0,0,0-27.9-10.2,101.4,101.4,0,0,0-22.4-3.2c-.4,7.9-2.8,27.4-16.4,29.7-17.1,2.9-18.1-9-13.5-16.6s17.2-5.5,26.7-13.1a134.3,134.3,0,0,0-43.2,6.4c-.4,8.1-3,26.9-16.3,29.1-17.2,2.9-18.1-8.9-13.5-16.6s17.5-5.4,27.1-13.4l-.2-.4c-4.7.1-14.8.4-19.6.8-6.4.5-15.6-2.6-19.5-8.3A11.8,11.8,0,0,1,126,1143.4Z"/><path class="cls-9" d="M150.2,1258.7c37.8-23.1,75.9-35.5,112.9-40.5,10.9,13.4,24.2,29.2,24.2,29.2l1.3-31.6c141.8-6.7,259.5,88.1,259.5,88.1-82,51.9-152,66.3-209.4,61.8-3.5-11-8.3-27.5-8.3-27.5l-10.1,25.4a251,251,0,0,1-72.8-23.2c5.3-13.2,11-28.3,11-28.3l-30.6,17.5C176.7,1298.4,150.2,1258.7,150.2,1258.7Z"/><path class="cls-5" d="M338.7,1365.7c-3.5-11-8.3-27.5-8.3-27.5l-10.1,25.4a251,251,0,0,1-72.8-23.2c5.3-13.2,11-28.3,11-28.3l-30.6,17.5c-51.2-31.2-77.7-70.9-77.7-70.9,165.2-19.4,397.9,45.2,397.9,45.2C466.1,1355.8,396.1,1370.2,338.7,1365.7Z"/><path class="cls-6" d="M1723.4,1478l74-1.1c25.9-46.6,44.8-87.1,44.8-87.1-83.6-19.4-125.1-21.3-184,1.2l-38.3,60-7.1-49.3c-146,78.4-229.5,261.7-229.5,261.7s257.8-26.9,312.4-52.2c21.1-9.7,47.8-45,72.5-84.5C1748.5,1507.8,1723.4,1478,1723.4,1478Z"/><path class="cls-7" d="M1842.2,1389.8s-331.1,138.5-458.9,273.6c0,0,257.8-26.9,312.4-52.2,21.1-9.7,47.8-45,72.5-84.5-19.7-18.9-44.8-48.7-44.8-48.7l74-1.1C1823.3,1430.3,1842.2,1389.8,1842.2,1389.8Z"/><path class="cls-8" d="M1831.2,1612.3c-44.5-27.2-89.4-41.8-132.9-47.7-12.7,15.8-28.4,34.4-28.4,34.4l-1.6-37.2c-166.8-7.9-305.3,103.6-305.3,103.6,96.5,61.1,178.9,78.1,246.4,72.8,4.1-13,9.8-32.4,9.8-32.4l11.8,29.9a291.4,291.4,0,0,0,85.7-27.3c-6.3-15.5-12.9-33.2-12.9-33.2l35.9,20.5C1800,1658.9,1831.2,1612.3,1831.2,1612.3Z"/><path class="cls-10" d="M1609.4,1738.2c4.1-13,9.8-32.4,9.8-32.4l11.8,29.9a291.4,291.4,0,0,0,85.7-27.3c-6.3-15.5-12.9-33.2-12.9-33.2l35.9,20.5c60.3-36.8,91.5-83.4,91.5-83.4-194.4-22.9-468.2,53.1-468.2,53.1C1459.5,1726.5,1541.9,1743.5,1609.4,1738.2Z"/><polygon class="cls-11" points="1581.4 852.9 1009.7 726.3 1009.7 1622.2 1581.4 1742.9 1581.4 852.9"/><polygon class="cls-5" points="1596.4 1742.7 1581.4 1742.9 1581.4 846.9 1596.4 846.6 1596.4 1742.7"/><polygon class="cls-12" points="1009.7 726.3 1016.3 721.3 1596.4 846.6 1581.4 852.9 1009.7 726.3"/><polygon class="cls-11" points="438 852.9 1009.7 726.3 1009.7 1622.2 438 1742.9 438 852.9"/><path class="cls-13" d="M462,861.4,970.1,735.2s26.7,11.2,39.6,9.6L768.2,946.7s-167.3,21.6-171.6,14.4S462,861.4,462,861.4Z"/><polygon class="cls-14" points="462 1738.7 526.7 1767.7 526.7 890.3 462 861.4 462 1738.7"/><polygon class="cls-15" points="1009.7 1622.2 526.7 1767.7 526.7 890.3 1009.7 744.8 1009.7 1622.2"/><polygon class="cls-16" points="961.3 888.2 575.1 1004.5 575.1 941.3 961.3 825 961.3 888.2"/><polygon class="cls-16" points="961.3 915.8 718.4 988.9 718.4 977.6 961.3 904.4 961.3 915.8"/><polygon class="cls-16" points="961.3 944.1 718.4 1017.3 718.4 1005.9 961.3 932.8 961.3 944.1"/><polygon class="cls-16" points="961.3 972.5 718.4 1045.6 718.4 1034.3 961.3 961.1 961.3 972.5"/><polygon class="cls-16" points="961.3 1000.8 718.4 1074 718.4 1062.6 961.3 989.5 961.3 1000.8"/><polygon class="cls-16" points="961.3 1029.2 718.4 1102.3 718.4 1091 961.3 1017.8 961.3 1029.2"/><polygon class="cls-16" points="961.3 1057.5 718.4 1130.7 718.4 1119.4 961.3 1046.2 961.3 1057.5"/><polygon class="cls-16" points="961.3 1085.9 718.4 1159.1 718.4 1147.7 961.3 1074.6 961.3 1085.9"/><polygon class="cls-16" points="961.3 1114.3 718.4 1187.4 718.4 1176.1 961.3 1102.9 961.3 1114.3"/><polygon class="cls-16" points="961.3 1142.6 718.4 1215.8 718.4 1204.4 961.3 1131.3 961.3 1142.6"/><polygon class="cls-16" points="961.3 1171 718.4 1244.1 718.4 1232.8 961.3 1159.6 961.3 1171"/><polygon class="cls-16" points="961.3 1199.3 575.1 1315.6 575.1 1304.3 961.3 1188 961.3 1199.3"/><polygon class="cls-16" points="768.2 1285.8 575.1 1344 575.1 1332.6 768.2 1274.5 768.2 1285.8"/><polygon class="cls-16" points="768.2 1314.2 575.1 1372.3 575.1 1361 768.2 1302.8 768.2 1314.2"/><polygon class="cls-16" points="768.2 1342.5 575.1 1400.7 575.1 1389.3 768.2 1331.2 768.2 1342.5"/><polygon class="cls-16" points="768.2 1370.9 575.1 1429 575.1 1417.7 768.2 1359.6 768.2 1370.9"/><polygon class="cls-16" points="768.2 1399.3 575.1 1457.4 575.1 1446.1 768.2 1387.9 768.2 1399.3"/><polygon class="cls-16" points="768.2 1427.6 575.1 1485.8 575.1 1474.4 768.2 1416.3 768.2 1427.6"/><polygon class="cls-16" points="768.2 1456 575.1 1514.1 575.1 1502.8 768.2 1444.6 768.2 1456"/><polygon class="cls-16" points="768.2 1484.3 575.1 1542.5 575.1 1531.1 768.2 1473 768.2 1484.3"/><polygon class="cls-16" points="768.2 1512.7 575.1 1570.8 575.1 1559.5 768.2 1501.3 768.2 1512.7"/><polygon class="cls-16" points="961.3 1482.9 575.1 1599.2 575.1 1587.8 961.3 1471.5 961.3 1482.9"/><polygon class="cls-16" points="961.3 1511.2 575.1 1627.5 575.1 1616.2 961.3 1499.9 961.3 1511.2"/><polygon class="cls-16" points="961.3 1539.6 575.1 1655.9 575.1 1644.5 961.3 1528.3 961.3 1539.6"/><polygon class="cls-16" points="575.1 1287.3 702.4 1248.9 702.4 982.4 575.1 1020.7 575.1 1287.3"/><polygon class="cls-16" points="781.8 1508.6 961.3 1454.5 961.3 1216.3 781.8 1270.4 781.8 1508.6"/><path class="cls-17" d="M1557.4,861.4,1049.3,735.2s-26.7,11.2-39.6,9.6l241.5,201.9s167.3,21.6,171.6,14.4S1557.4,861.4,1557.4,861.4Z"/><polygon class="cls-18" points="1557.4 1738.7 1492.7 1767.7 1492.7 890.3 1557.4 861.4 1557.4 1738.7"/><polygon class="cls-14" points="1009.7 1622.2 1492.7 1767.7 1492.7 890.3 1009.7 744.8 1009.7 1622.2"/><polygon class="cls-5" points="423 1742.7 438 1742.9 438 846.9 423 846.6 423 1742.7"/><polygon class="cls-12" points="1009.7 726.3 1003.1 721.3 423 846.6 438 852.9 1009.7 726.3"/><path class="cls-5" d="M1056.6,730.1c-18.3-6.5-32.9-8.6-42.4-9.1-5.8-.5-23.5-1-50.8,8.8a33.9,33.9,0,0,0,4.9,4h0a61.7,61.7,0,0,0,25.1,9.5C1030.3,751,1056.6,730.1,1056.6,730.1Z"/><polygon class="cls-5" points="1033.7 1581.8 1469.2 1712.9 1469.2 921.8 1033.7 790.7 1033.7 1581.8"/><path class="cls-8" d="M1033.7,1191.5v390.3l231.9,69.8a276.3,276.3,0,0,0,59.9-261.4C1288,1260.3,1163.6,1179.1,1033.7,1191.5Z"/><path class="cls-10" d="M1093.6,1192.3a276.7,276.7,0,0,1,51.3,98.2c32.4,112.3-9.5,228.4-96.7,295.7l217.4,65.4a276.3,276.3,0,0,0,59.9-261.4C1293.8,1280.5,1200.2,1205.5,1093.6,1192.3Z"/><path class="cls-19" d="M1285.7,1307.3c72.4-15,135.2-24.7,183.5-28.6v-24.3c-57,8.5-123,21.1-195.3,37.4C1278,1296.8,1282,1301.9,1285.7,1307.3Z"/><path class="cls-19" d="M1469.2,1396.9v-24.3c-90.3,43.9-232.5,96.3-395.2,143.2-13.6,4-27,7.7-40.3,11.4v16.6c14.8-4.1,29.7-8.3,44.7-12.7C1228.8,1487.7,1364.7,1440.5,1469.2,1396.9Z"/><g class="cls-20"><path class="cls-14" d="M1169.7,831.6l-136-40.9v378.4c15.6-8.2,29-19.6,37.4-34.9,9.8-17.8,12.5-39.7,26.5-54.2,17.5-18.1,45.7-18.4,69.3-26.9,7.4-2.7,14.8-6.5,19.1-13.1,3.2-4.7,4.5-10.4,5.3-16a148.4,148.4,0,0,0-2.1-57.5c-8.4-35.9-30.2-69.8-26.6-106.4C1163.5,850.3,1166.3,840.9,1169.7,831.6Z"/></g><g class="cls-20"><path class="cls-14" d="M1469.2,1055.1c-22.7-.7-45.3-1.1-67.8.8-12.3,1.1-25.2,3.2-34.7,12.3-13,12.4-16.1,34.1-25,50.9-29.6,56.2-107.1,39-147.8,84.3-11,12.2-18.4,28-26.6,43a358.1,358.1,0,0,1-52.3,73c-20.6,22.1-45.4,44.4-49.2,77-3.2,27.7,10,54,23.7,76.8,26.6,44.3,56.9,85.6,80.3,132.4q5,9.9,9.6,20.1l289.8,87.2Z"/></g><path class="cls-14" d="M1337.5,1009.9c5.1,0,5.1-8,0-8s-5.2,8,0,8Z"/><path class="cls-14" d="M1101.8,1155c3.6,0,3.6-5.6,0-5.6s-3.6,5.6,0,5.6Z"/><path class="cls-14" d="M1066.3,1057.8c4.6,0,4.6-7.2,0-7.2s-4.7,7.2,0,7.2Z"/><path class="cls-14" d="M1392.9,1203.2c7.2,0,7.2-11.2,0-11.2s-7.2,11.2,0,11.2Z"/><path class="cls-14" d="M1127.3,921.9c5.2,0,5.2-8,0-8s-5.1,8,0,8Z"/><path class="cls-14" d="M1292.1,940.3c5.1,0,5.1-8,0-8s-5.2,8,0,8Z"/><path class="cls-14" d="M1398.6,1120.7c5.1,0,5.1-8,0-8s-5.2,8,0,8Z"/><path class="cls-14" d="M1255.1,1123.5c5.2,0,5.2-8,0-8s-5.1,8,0,8Z"/><path class="cls-14" d="M1448.3,940.3c5.1,0,5.1-8,0-8s-5.2,8,0,8Z"/><path class="cls-14" d="M1134.4,898c3.6,0,3.6-5.6,0-5.6s-3.6,5.6,0,5.6Z"/><path class="cls-14" d="M1292.1,1255.2c4.6,0,4.6-7.2,0-7.2s-4.7,7.2,0,7.2Z"/><path class="cls-14" d="M1387.2,1530.7c4.6,0,4.6-7.2,0-7.2s-4.6,7.2,0,7.2Z"/><path class="cls-14" d="M1411.3,1556.8c3.6,0,3.6-5.5,0-5.5s-3.6,5.5,0,5.5Z"/><path class="cls-14" d="M1448.3,1489.3c2.5,0,2.5-4,0-4a2,2,0,0,0,0,4Z"/><path class="cls-14" d="M1432.6,1197.6c3.6,0,3.6-5.6,0-5.6s-3.6,5.6,0,5.6Z"/><path class="cls-14" d="M1077.6,894.9c5.2,0,5.2-8,0-8s-5.1,8,0,8Z"/><path class="cls-14" d="M1050.6,1143.6c3.6,0,3.7-5.6,0-5.6s-3.6,5.6,0,5.6Z"/><path class="cls-14" d="M1269.3,1109.5c3.6,0,3.6-5.6,0-5.6s-3.6,5.6,0,5.6Z"/><path class="cls-14" d="M1222.5,1081.1c3.6,0,3.6-5.6,0-5.6s-3.6,5.6,0,5.6Z"/><path class="cls-14" d="M1382.9,1014.4c3.6,0,3.6-5.6,0-5.6s-3.6,5.6,0,5.6Z"/><path class="cls-14" d="M1381.5,1366.6c3.6,0,3.6-5.6,0-5.6s-3.6,5.6,0,5.6Z"/><path class="cls-14" d="M1404.2,1383.6c3.6,0,3.6-5.6,0-5.6s-3.6,5.6,0,5.6Z"/><path class="cls-14" d="M1347.4,1569.6c3.6,0,3.6-5.6,0-5.6s-3.6,5.6,0,5.6Z"/><path class="cls-14" d="M1267.6,993.1s-1.7,17-14.3,14.4c12.6,5,14.3,22.9,14.3,22.9s1.6-16.9,14.2-14.3C1269.2,1011.1,1267.6,993.1,1267.6,993.1Z"/><path class="cls-14" d="M1392.9,1612.9s-1.6,16.9-14.3,14.3c12.7,5,14.3,22.9,14.3,22.9s1.6-16.9,14.2-14.3C1394.5,1630.8,1392.9,1612.9,1392.9,1612.9Z"/><path class="cls-14" d="M1251.4,874.3s-1.3,13.5-11.3,11.5c10,4,11.3,18.2,11.3,18.2s1.3-13.5,11.4-11.4C1252.7,888.6,1251.4,874.3,1251.4,874.3Z"/><path class="cls-14" d="M1113.4,993.1s-1.1,11.7-9.7,9.9c8.6,3.4,9.7,15.7,9.7,15.7s1.1-11.6,9.8-9.9C1114.5,1005.4,1113.4,993.1,1113.4,993.1Z"/><path class="cls-14" d="M1422.9,1307.3s-1.1,11.6-9.8,9.8c8.7,3.4,9.8,15.7,9.8,15.7s1.1-11.6,9.7-9.8C1424,1319.5,1422.9,1307.3,1422.9,1307.3Z"/><path class="cls-14" d="M1377.4,921.4s-.8,8.4-7,7.1c6.2,2.5,7,11.4,7,11.4s.8-8.4,7.1-7.1C1378.2,930.3,1377.4,921.4,1377.4,921.4Z"/><path class="cls-14" d="M1432.6,1075.5s-.8,8.4-7,7.1c6.2,2.5,7,11.4,7,11.4s.8-8.4,7.1-7.2C1433.4,1084.4,1432.6,1075.5,1432.6,1075.5Z"/><path class="cls-14" d="M1327.2,1075.5s-.8,8.4-7,7.1c6.2,2.5,7,11.4,7,11.4s.8-8.4,7.1-7.2C1328,1084.4,1327.2,1075.5,1327.2,1075.5Z"/><path class="cls-14" d="M1113.4,824.8s-.8,8.4-7,7.1c6.2,2.5,7,11.4,7,11.4s.8-8.4,7.1-7.1C1114.2,833.7,1113.4,824.8,1113.4,824.8Z"/><path class="cls-14" d="M1175.3,1169.6s-.7,7.2-6,6.1c5.3,2.1,6,9.7,6,9.7s.7-7.2,6-6.1C1176,1177.2,1175.3,1169.6,1175.3,1169.6Z"/><path class="cls-5" d="M1473.6,1718.8l-444.3-133.7V784.8l444.3,133.7Zm-435.5-140.3L1464.8,1707V925.1L1038.1,796.6Z"/><path class="cls-21" d="M565.6,1891.1,180.3,1756l305.1-168.3,394.1,140.9L583.3,1889.7A22.3,22.3,0,0,1,565.6,1891.1Z"/><path class="cls-14" d="M210.3,1609.8s57.9,67-9.1,140.3l363,136.4a24.6,24.6,0,0,0,25.9-5.4l13.2-12.7S649,1743,649,1739.9s-91.4-77.3-91.4-77.3S407,1644.5,403,1644.5,210.3,1609.8,210.3,1609.8Z"/><path class="cls-22" d="M604.9,1845.5c-2.4,0-269.7-88.3-269.7-88.3s266.5,96.9,267.3,94.5S604.9,1845.5,604.9,1845.5Z"/><path class="cls-21" d="M189.8,1606.2v8.3L573,1745.8s23.6,29.5,21.2,69.8-11,71.9-23.6,72.4c0,0,7.9.6,11.9-1.9s13.4-10.8,13.4-10.8,15.9-71.6,16.7-73.3-8.3-60.2-14.4-64.5-1-11.2-30-16.6S311,1613.1,305.5,1614.5s-52.9-.8-55.4,0S189.8,1606.2,189.8,1606.2Z"/><path class="cls-23" d="M578.9,1742.2s48.8,82.8,0,149.3l324.8-176.1s38.2-78.4-11-127.7Z"/><polygon class="cls-21" points="578.9 1742.2 189.8 1606.2 541 1486.8 892.7 1587.7 578.9 1742.2"/><path class="cls-22" d="M516.6,1769l-283.2-98.5c.1,2.1.1,4.2.1,6.3Z"/><path class="cls-22" d="M230.2,1699.9c-.8,2.9-1.7,5.8-2.8,8.8l207.8,67.8Z"/><path class="cls-6" d="M516.9,1699.3l393-116.7L614.5,1437.1,212.3,1558.9l287,139.2A24.7,24.7,0,0,0,516.9,1699.3Z"/><path class="cls-14" d="M888.4,1456.2s-61.9,57.9.9,121.3L518.5,1695.3c-9.1,3-19.1,1.1-25.6-4.6l-12.5-11s-38.5-108.3-38.3-111.1,95.9-66.7,95.9-66.7,151.6-15.7,155.6-15.7S888.4,1456.2,888.4,1456.2Z"/><path class="cls-22" d="M480.2,1659.9c2.3,0,274.7-76.3,274.7-76.3s-272.1,83.7-272.7,81.7S480.2,1659.9,480.2,1659.9Z"/><path class="cls-6" d="M909.1,1453.1l-.5,7.2L517.8,1573.7s-25.3,25.6-25.3,60.3,7,62.2,19.6,62.6c0,0-8,.6-11.9-1.6s-12.8-9.4-12.8-9.4-11.7-61.8-12.4-63.3,11.7-52,18.1-55.7,1.6-9.7,30.9-14.3,263.4-93.2,268.9-92,52.8-.7,55.4,0S909.1,1453.1,909.1,1453.1Z"/><path class="cls-6" d="M512.1,1570.7s-53.5,71.5-8.6,128.9L188.8,1547.5s-33.7-67.8,18.4-110.4Z"/><polygon class="cls-7" points="512.1 1570.7 909.1 1453.1 564.7 1349.9 207.2 1437.1 512.1 1570.7"/><path class="cls-22" d="M572.9,1593.8l288.8-85.1c-.2,1.8-.4,3.6-.5,5.5Z"/><path class="cls-22" d="M863.2,1534.1c.6,2.5,1.4,5,2.3,7.6l-211.6,58.6Z"/><path class="cls-24" d="M260.1,1460.3s-53,55.3-11.6,116.2l23.5,11.2s-30.2-72.8,14.6-115.8Z"/><path class="cls-10" d="M607.4,1556.7,280,1445.7l238.4-137.9,335,115.9L621.8,1555.6A17.6,17.6,0,0,1,607.4,1556.7Z"/><path class="cls-14" d="M293.5,1325.7s52.8,55,3.2,115.1L605.9,1553c7.6,2.8,15.8,1.1,20.9-4.4l9.9-10.5s28.1-102.8,27.9-105.3-81.2-63.5-81.2-63.5-125.3-15-128.5-15S293.5,1325.7,293.5,1325.7Z"/><path class="cls-22" d="M636.3,1519.4c-2,0-228.7-72.7-228.7-72.7s226.7,79.7,227.2,77.8S636.3,1519.4,636.3,1519.4Z"/><path class="cls-10" d="M276.4,1322.8l.6,6.8,325.4,108s21.7,24.2,22.8,57.2-3.6,59-14,59.4c0,0,6.7.5,9.8-1.5s10.2-8.9,10.2-8.9,7.6-58.7,8.1-60.1-11.4-49.4-16.8-52.9-1.6-9.2-25.9-13.6-219.9-88.7-224.3-87.5-43.6-.7-45.6-.1S276.4,1322.8,276.4,1322.8Z"/><path class="cls-10" d="M607,1434.6s46.5,68,11.4,122.5l253.9-144.2s25.6-64.3-18.7-104.8Z"/><polygon class="cls-8" points="607 1434.6 276.4 1322.8 556.4 1225.1 853.6 1308.1 607 1434.6"/><path class="cls-22" d="M557.8,1456.6l-240.6-81.1c.3,1.7.4,3.5.6,5.2Z"/><path class="cls-22" d="M316.8,1399.6a69.5,69.5,0,0,1-1.7,7.3l176.2,55.8Z"/><polygon class="cls-10" points="578.7 1401.4 387.3 1334.2 425.1 1317.8 627.9 1377.9 578.7 1401.4"/><polygon class="cls-25" points="1038.1 739.4 1533.8 871.9 1541.3 1745.9 1525.1 1758.8 1525.1 875.8 1038.1 739.4"/><path class="cls-21" d="M1018.4,1853c4.6,1.4,9.8-.6,11.9-4.4,7.8-14.3,28.2-48.1,61.3-77.8,1.3-1.2,7.8-5.5,33.7-9.6,18.4-3,43.3-5.3,74.1-6.9,52.3-2.8,122-3.8,207.1-2.8,145.2,1.5,286.7,8.1,288.1,8.2l2-15.8c-1.4,0-143.3-6.7-288.9-8.3-85.6-.9-155.8.1-208.6,2.9-91.1,4.9-112.4,14.2-120.9,21.8-35.3,31.7-56.5,66.9-64.9,82.3-2.2,4.2.1,9,5.1,10.4Z"/><path class="cls-21" d="M1711.2,1902.4c-5,.6-9.5-2.1-10.3-6.2-3-15-12.2-51-34.9-84.8-1-1.4-5.9-6.5-29.9-14.3-17-5.5-40.6-11.4-70.2-17.5-50.1-10.3-117.9-21.4-201.3-32.9-142.3-19.5-282.6-33.7-284-33.8l3.1-15.7c1.4.1,142.1,14.3,284.8,33.9,83.9,11.6,152.1,22.7,202.7,33.1,87.4,18,105.3,30.3,111.2,38.9,24.3,36.1,33.8,73.6,37,89.8.9,4.4-2.9,8.7-8.2,9.5Z"/><polygon class="cls-26" points="1098.6 1761.2 1264.7 1612.3 1321.2 1652.1 1152.7 1803.3 1098.6 1761.2"/><polygon class="cls-26" points="1322.9 1661.2 1164.1 1806 1176.4 1810.5 1329.7 1670.4 1322.9 1661.2"/><path class="cls-26" d="M1452.9,1787.8s151.6-144.5,153.1-144.7,48.6,21.1,48.6,21.1l-163,158.8Z"/><path class="cls-26" d="M1500.1,1826.5c1.7-1.9,157.8-156,157.8-156l7.9,9.9-157.3,150.9Z"/><ellipse class="cls-27" cx="1215.7" cy="1712.1" rx="121.9" ry="102.1" transform="translate(-229.7 188.9) rotate(-8.1)"/><ellipse class="cls-27" cx="1563.6" cy="1737.7" rx="121.9" ry="102.1" transform="translate(-229.8 238.3) rotate(-8.1)"/><path class="cls-21" d="M1694.1,1735.5l-2.4-.2c.9-24.6-8.1-48.1-26-67.2-20.7-22.1-50.8-35.7-84.7-38.2s-67.7,6.4-95,25c-22.5,15.3-38.4,35.8-45.9,58.7-23.3-17.7-49.5-17.9-68.5-14.4a135,135,0,0,0-27.7,8.4c.3-23.8-8.7-46.6-26.1-65.1-20.7-22.1-50.8-35.7-84.7-38.2s-67.7,6.4-95,25c-23.5,16-39.9,37.7-46.9,61.9l-2.4-.2c-9.3-.7-18,5.2-19.3,13.1h0c-1.2,8,5.3,15,14.7,15.7l3.2.2c.6,22.6,9.6,44,26.1,61.7,20.7,22.1,50.8,35.7,84.7,38.2s67.7-6.4,95-25c25.3-17.2,42.3-41,48.3-67.4h.1a115.1,115.1,0,0,1,33.8-12.2c24.1-4.2,44.2,2.1,59.9,18.8l.5-.4c-2.8,26.9,6.2,52.8,25.6,73.5s50.8,35.7,84.7,38.2,67.7-6.4,95-25c21.8-14.8,37.4-34.5,45.1-56.4l3.3.2c9.4.7,18-5.2,19.3-13.2S1703.5,1736.2,1694.1,1735.5Zm-364.7-15c-8.6,53.2-66.6,92.8-129.3,88.1s-106.8-51.6-98.2-104.9,66.6-92.8,129.4-88.1S1338,1667.2,1329.4,1720.5Zm347.9,25.6c-8.6,53.2-66.6,92.8-129.3,88.1s-106.8-51.6-98.2-104.9c.3-1.9.7-3.9,1.1-5.8h.1c11.7-50.2,67.8-86.7,128.1-82.2C1641.9,1645.8,1685.9,1692.8,1677.3,1746.1Z"/><path class="cls-28" d="M780.1,1509.5l-7.9,17.7a2.9,2.9,0,0,0,1.5,3.8l41.3,18.5a3.3,3.3,0,0,0,4.1-4.8l-16-24.9S790.4,1522.1,780.1,1509.5Z"/><path class="cls-23" d="M597.9,1289.8s-12.7,60,45,74.2,130.8,15.7,130.8,15.7l1.3,139.6,30.4,3.5s90.8-188.2-16-225.2l-97.8-5.7-40.1-5.4s-40.1-12.7-40.7-10.8S598.8,1290.8,597.9,1289.8Z"/><path class="cls-28" d="M823.8,1130.1c8.7-11,5.3-20.2-6.5-36.5-17.9-24.7-39.9-28.4-58.7-44.9-6.6-5.8-17.5-24.1-24.7-36.9a190.4,190.4,0,0,1-9.7-20.4c-16-38.8-53.4-32.5-53.4-32.5s1.9,49.1,2,50.5a20.9,20.9,0,0,0,4,2.1c-7.5,7.4-19.6,19.3-21.9,23.3-3.5,5.7-17.7,30.7-17.7,30.7s24.6,68.3,26.9,87.5c1.3,10.1,16.5,13,33.7,13.9,10.9,21,26,42.2,42.1,40.8,31.3-2.7,30.2-14.8,40.5-24.7s32,.5,46-16.5C837.1,1153.5,818.3,1136.9,823.8,1130.1Z"/><path class="cls-29" d="M711.6,1170.3s-10.9,110.7-.6,124.9H669.2V1163.7Z"/><path class="cls-28" d="M603.3,980s-12.3,18.4-18.5,25.7c-15.7,18.4-17.7,12.6-27.5,28.4s.2,27.7,6.2,32.6-4.1,23.1,7.2,33.3c14.8,13.3,28.4.7,38.6,8.2s12.4,18.5,36.5,16.4,23.8-80.8,23.8-80.8-19.7-41.8-20.5-42.1Z"/><path class="cls-29" d="M665.9,1092s-40.2-7.4-58.6-6.8,11.2,48.7,11.2,48.7l30.1.7s18.6-20.7,17.3-23.1.1-18.2.1-18.2Z"/><path class="cls-29" d="M630.1,1053.6l-10.6,32.2s9.2,19.1,37.5,10.9c0,0-3.2-6.7,1.1-20.4S630.1,1053.6,630.1,1053.6Z"/><path class="cls-30" d="M630.1,1053.6l-5,15.1c3,10.9,12.6,18.4,30.7,20.7a42.2,42.2,0,0,1,2.3-13.1C662.5,1062.2,630.1,1053.6,630.1,1053.6Z"/><path class="cls-31" d="M694.8,1030.1c-2.3,5.2-.8,10.9,3.4,12.7s9.4-.9,11.7-6.1.8-10.9-3.4-12.8S697.1,1024.8,694.8,1030.1Z"/><path class="cls-29" d="M692.4,1060.9a36.1,36.1,0,0,0,3.5-7.1,78.5,78.5,0,0,0,5-20.2c.2-1.3.4-2.7.7-4a44.1,44.1,0,1,0-87.4-10,9.7,9.7,0,0,0-8.6-.9c-5.3,2.2-7.4,9.4-4.6,16s9.3,10.2,14.6,8a8.2,8.2,0,0,0,2-1.2c1.6,21.7,18.9,38.8,40.1,39.1a39.8,39.8,0,0,0,27.2-10.5l1.5-1.4A35.2,35.2,0,0,0,692.4,1060.9Z"/><path class="cls-31" d="M682.3,1022a31.1,31.1,0,0,0-1.4,7.5,24.8,24.8,0,0,0,.2,3.8,9.9,9.9,0,0,0,1.3,4l.4.5.3.4.4.5a2.1,2.1,0,0,1,.5,1.3,3.5,3.5,0,0,1-.8,2.6,11.1,11.1,0,0,1-6.2,3.1,8.9,8.9,0,0,0,7.5-1.8,5.3,5.3,0,0,0,1.8-4.2,2,2,0,0,0-.3-1.1,3.7,3.7,0,0,0-.5-1.1c-.1-.4-.4-.6-.6-.9l-.3-.4-.2-.2a11.7,11.7,0,0,1-1.1-3c-.3-1.2-.3-2.4-.5-3.6S682.5,1024.6,682.3,1022Z"/><path class="cls-28" d="M667.4,1027.2a3.9,3.9,0,0,1-3.9,3.8,4,4,0,0,1-3.8-3.9,3.9,3.9,0,0,1,7.7.1Z"/><path class="cls-28" d="M696,1027.9a3.8,3.8,0,0,1-3.9,3.8,3.9,3.9,0,0,1-3.8-3.9,3.8,3.8,0,0,1,3.9-3.8A3.8,3.8,0,0,1,696,1027.9Z"/><path class="cls-32" d="M666.8,1052.8a12.4,12.4,0,0,1,10.2,1.3s5.3-3.3,9.5-.1a10.1,10.1,0,0,1-10.7,7.4A9.1,9.1,0,0,1,666.8,1052.8Z"/><path class="cls-31" d="M662.2,1049.9a22.7,22.7,0,0,0,3.2,2.2,17.4,17.4,0,0,0,3.3,1.8,22.6,22.6,0,0,0,7.2,1.9,20,20,0,0,0,7.3-.8,28.8,28.8,0,0,0,6.8-3.4,16.6,16.6,0,0,1-3.1,2.3,18.3,18.3,0,0,1-3.4,1.8,23.6,23.6,0,0,1-3.8,1,25.4,25.4,0,0,1-3.9.1,21.3,21.3,0,0,1-7.4-2.3A23.3,23.3,0,0,1,662.2,1049.9Z"/><path class="cls-28" d="M668.8,1015.6a39.5,39.5,0,0,0-5.6-1.1,19.4,19.4,0,0,0-5.4.1,19.7,19.7,0,0,0-5.1,1.5c-.9.3-1.6.9-2.5,1.3l-2.6,1.5a22.6,22.6,0,0,1,1.6-2.6,12,12,0,0,1,2.3-2.2,11.2,11.2,0,0,1,5.9-2.5,12.3,12.3,0,0,1,6.3.6A11.2,11.2,0,0,1,668.8,1015.6Z"/><path class="cls-28" d="M686.4,1015.6a12.5,12.5,0,0,1,5.5-2.8,13.9,13.9,0,0,1,6.4.2,13.1,13.1,0,0,1,5.6,3.2,11.8,11.8,0,0,1,1.9,2.5,9,9,0,0,1,1.3,2.8l-2.4-1.8a16,16,0,0,0-2.3-1.6,18,18,0,0,0-4.9-2.2,18.3,18.3,0,0,0-5.3-.7C690.4,1015.2,688.5,1015.4,686.4,1015.6Z"/><path class="cls-7" d="M687.6,1182.7s-7.8,23-9.3,35.2c-3.5,30.2,3,56.2,9.3,73.4,8.8,24.2-65.7,10.8-67.1,10s-63-24.5-63-24.5l-4.6-47.4-7.1-46.7,3.3-27.4Z"/><path class="cls-29" d="M569.7,1116s9.5.9,8.5,17.4-8.8,48.2-8.8,48.2S494.2,1326,477.8,1340a5.6,5.6,0,0,1-3.2,1.3l-52.6,1.5h0a15.5,15.5,0,0,1,8.7-5.9l23.6-6.3a3.4,3.4,0,0,0,2.2-1.7l7.5-13.8,57-152c5.8-13.5,19.7-21.3,29.2-32.6C557.1,1122.3,564.7,1115.2,569.7,1116Z"/><path class="cls-7" d="M665.9,1092s-27.3,31.9-58.6-6.8c0,0-34.3-2.8-59.6,15.2s-40.3,58.2-40.3,58.2,45.7,23,57.1,24.1h127a112.3,112.3,0,0,0,38.1-10.9S726.3,1107.7,665.9,1092Z"/><path class="cls-14" d="M584.8,1134.6c-1.3,3.9-2.5,7.8-3.6,11.8s-2.3,7.9-3.3,11.9-2,8-2.9,12.1-1.7,8.1-2.4,12.2l1-1a29.4,29.4,0,0,1-4.2,0,33.2,33.2,0,0,1-4.4-.6,85.8,85.8,0,0,1-8.5-1.8l-2.2-.6-2.1-.6-4.2-1.4-4.2-1.4-4.1-1.6-8.3-3.4-8.1-3.7-8-3.9-7.9-4,7.6,4.7,7.7,4.4,8,4.1,4.1,1.9,4.1,1.8a125.7,125.7,0,0,0,16.9,6l2.2.6,2.2.5,4.5.8,4.5.5a24.6,24.6,0,0,0,4.7,0h.9v-.9c1.2-8.1,2.9-16.1,4.6-24.2l2.6-12.1Z"/><path class="cls-14" d="M681.4,1125.3c1.8,4.7,3.4,9.4,4.9,14.1s2.6,9.6,3.5,14.4a60.9,60.9,0,0,1,1,7.3,59.3,59.3,0,0,1,.1,7.3c-.1,4.9-7.4,27.9-9.5,32.5,3-4,10.9-27.2,11.4-32.3a51.6,51.6,0,0,0-.7-15.2,61.1,61.1,0,0,0-1.7-7.4q-1-3.6-2.4-7.2A73.4,73.4,0,0,0,681.4,1125.3Z"/><path class="cls-28" d="M614.2,1019.6s46.9-11.3,69.3-43.2c0,0,.4-29-42.7-22.4S589.2,1001.1,614.2,1019.6Z"/><path class="cls-28" d="M726.5,1507.4l-7.9,17.7a2.9,2.9,0,0,0,1.5,3.8l41.3,18.5a3.3,3.3,0,0,0,4.1-4.8l-16-24.9S736.9,1520,726.5,1507.4Z"/><path class="cls-21" d="M555.4,1275.1c-12.2,16.1-14.8,37.9-5.9,56.1,6.3,12.6,18,24.4,39.7,29.7,57.8,14.2,130.7,15.7,130.7,15.7l1.4,139.6,30.4,3.5s90.8-188.2-16.1-225.2l-97.8-5.7-40-5.4s-40.1-12.6-40.7-10.8A22,22,0,0,1,555.4,1275.1Z"/><path class="cls-14" d="M736.2,1380.3l-4.7-.9-4.5-1.2-2.2-.8,2.2-.6a20.6,20.6,0,0,0,4.2-2.1c1.2-1,2.4-2,3.5-3.1a25.1,25.1,0,0,0,2.7-3.7l-1.5,1.7-1.7,1.5a24.2,24.2,0,0,1-3.6,2.7,24.6,24.6,0,0,1-4,1.9,14.9,14.9,0,0,1-4.2.8h-2.5l2.2,1a28,28,0,0,0,4.6,1.6,24.6,24.6,0,0,0,4.7,1,37.8,37.8,0,0,0,4.7.6l4.8.2Z"/><path class="cls-33" d="M1016.6,628a59.7,59.7,0,0,1,58.2-46.3,58.4,58.4,0,0,1,15.1,1.9,87.8,87.8,0,0,1,79.6-50.7,90.8,90.8,0,0,1,26.2,3.9,108.5,108.5,0,0,1,194.8,19,73.5,73.5,0,0,1,36.1-9.4,74.4,74.4,0,0,1,74.4,74.4,57.9,57.9,0,0,1-.4,7.2Z"/><path class="cls-33" d="M848.6,586a16.6,16.6,0,0,0-16.1-12.8,14,14,0,0,0-4.1.6,24.3,24.3,0,0,0-22-14,24.6,24.6,0,0,0-7.2,1.1,29.9,29.9,0,0,0-53.7,5.2,20.1,20.1,0,0,0-10-2.6A20.5,20.5,0,0,0,715,584a13.4,13.4,0,0,0,.1,2Z"/><path class="cls-33" d="M1637.6,336.6a23.7,23.7,0,0,0-23.1-18.3,23.2,23.2,0,0,0-5.9.7,34.9,34.9,0,0,0-31.5-20,35.8,35.8,0,0,0-10.4,1.5,42.9,42.9,0,0,0-77,7.5,29.8,29.8,0,0,0-14.3-3.7,29.4,29.4,0,0,0-29.4,29.4,27.1,27.1,0,0,0,.1,2.9Z"/><path class="cls-33" d="M1831.2,664.6a81.6,81.6,0,0,0-122.9,19.8,66.9,66.9,0,0,0-19.6-2.9,66,66,0,0,0-59.9,38.1,48.1,48.1,0,0,0-11.4-1.4,44.9,44.9,0,0,0-43.8,34.8h259.1c0-.5.1-1.1.1-1.6C1835.6,723.5,1835.6,693,1831.2,664.6Z"/><path class="cls-33" d="M326.6,734H614.2a44.2,44.2,0,0,0-43.1-34.3,45.8,45.8,0,0,0-11.2,1.4,65,65,0,0,0-59-37.6,62.5,62.5,0,0,0-19.4,3,80.1,80.1,0,0,0-28-27.8C403.8,671.4,353.6,704.3,326.6,734Z"/><path class="cls-4" d="M1820.8,623.4c-9.3-25.2-23.8-45.7-45.2-56.7s-46-10.5-64.7-26.6c-11.4-9.9-18.6-24.5-22.8-40.8-87.4-.1-175,3.7-259.7-16.3-7-1.7-14.3-3.7-19.7-8.5-11.7-10.5-9.3-30.6,1.2-42.3s26.3-16.7,41.5-20.3c77.1-17.9,156.7-9.8,236.2-4.5,2.4-21.2,4.5-42.3,2.4-63.4a149.5,149.5,0,0,0-3.5-20.2c-78,2.8-156.1-8.2-234.1-6.1-9,.2-18.6.9-25.5,6.5s-9,13.2-13.3,20c-13,20.4-38.7,27.8-62.2,33.7l-254.7,63.5c-23.1,5.7-47.3,12.1-64.3,28.8-29.6,28.9-22.6,85.6,13.1,106.4,20.9,12.2,46.5,12.3,70.8,12.1l112.9-1.3c25.8-.2,52.4-.4,76.1,9.5s40.2,26.4,62.3,35.8c24.1,10.3,51.2,10.6,77.4,10.6l290.1.9c22.3,0,45.4,0,65.9-8.7A80.3,80.3,0,0,0,1820.8,623.4Z"/><path class="cls-34" d="M353.7,1413s-19.7,20-10.7,47c0,0,6-14,12-18,0,0-1,17,6,24,0,0,6.2-37.7,25.1-41.3Z"/><path class="cls-8" d="M578.9,1632.8S591,1647,590,1665c0,0,6.7-9.2,8.3-16.1A25.2,25.2,0,0,1,609,1660s7.5-19.1-.3-35.5Z"/><path class="cls-7" d="M391.5,1725.5S371,1753,378,1797c0,0,7-18,23-28,0,0,7,29,11,39,0,0,16-58.3,35-63.2Z"/></g></g></svg>