<svg xmlns="http://www.w3.org/2000/svg" xmlns:xlink="http://www.w3.org/1999/xlink" viewBox="0 0 1295 891.3"><defs><style>.cls-1,.cls-14,.cls-19,.cls-20,.cls-5,.cls-8{fill:none;}.cls-2{fill:#f4f3ed;}.cls-3{clip-path:url(#clip-path);}.cls-4{fill:#312c39;}.cls-5,.cls-8{stroke:#fff;}.cls-14,.cls-17,.cls-18,.cls-26,.cls-5,.cls-8{stroke-miterlimit:10;}.cls-14,.cls-16,.cls-19,.cls-21,.cls-26,.cls-5,.cls-8{stroke-width:2px;}.cls-21,.cls-6{fill:#fff;}.cls-7{fill:#79748c;}.cls-14,.cls-16,.cls-19,.cls-20,.cls-21,.cls-26,.cls-8{stroke-linecap:round;}.cls-9{fill:#d6d6d6;}.cls-10{fill:#7eed9a;}.cls-11{fill:#5cb880;}.cls-12{fill:#cbd9f9;}.cls-13{fill:#33313b;}.cls-14,.cls-16,.cls-19,.cls-21,.cls-26{stroke:#33313b;}.cls-15{fill:#f7d4a6;}.cls-16,.cls-26{fill:#ffa74a;}.cls-16,.cls-19,.cls-20,.cls-21{stroke-linejoin:round;}.cls-17{fill:#ebc5ec;}.cls-17,.cls-18{stroke:#000;}.cls-18,.cls-25{fill:#ac79c9;}.cls-20{stroke:#b94daa;stroke-dasharray:4;}.cls-22{fill:#d58136;}.cls-23{fill:#92b577;}.cls-24{fill:#a8c4b1;}</style><clipPath id="clip-path"><rect class="cls-1" x="426.6" width="868.4" height="874.23" rx="15.4"/></clipPath></defs><g id="OBJECTS"><rect class="cls-2" width="1310.2" height="891.27" rx="11.7"/><g class="cls-3"><path class="cls-4" d="M698.8-23c-36.4,127.1,18,269.2,32.2,306.2,142,370.7,626.8,467.7,772.9,173.3,68.5-138,60.9-358.5-1.6-503.1C1339-424.5,784.3-321.7,698.8-23Z"/></g><path class="cls-5" d="M1085.4,194.9v28.8s-5.2,11.4-22.7,11.4-22.6-11.4-22.6-11.4V194.9"/><line class="cls-5" x1="1079.2" y1="198" x2="1079.2" y2="244.2"/><path class="cls-6" d="M1062.7,168.3l33.7,18.7v.7L1062.7,209l-33.6-21.3a.9.9,0,0,1,0-.7l33.6-18.7m0-2.1h-.5l-34.2,19c-1.3.7-1.3,3.2-.1,4l34.3,21.8h1.1l34.3-21.8a2.7,2.7,0,0,0-.1-4l-34.3-19Z"/><path class="cls-7" d="M1079.2,256c-2,0-3.6-2.5-3.6-5.6s1.6-5.7,3.6-5.7,3.6,2.5,3.6,5.7S1081.2,256,1079.2,256Z"/><path class="cls-6" d="M1079.2,245.2c1.7,0,3.1,2.4,3.1,5.2s-1.4,5.1-3.1,5.1-3.1-2.3-3.1-5.1,1.4-5.2,3.1-5.2m0-1c-2.3,0-4.1,2.8-4.1,6.2s1.8,6.1,4.1,6.1,4.1-2.7,4.1-6.1-1.8-6.2-4.1-6.2Z"/><path class="cls-5" d="M863.8,258.9c6.7,0,6.7,6,13.4,6s6.7-6,13.3-6,6.7,6,13.4,6,6.7-6,13.4-6,6.7,6,13.4,6,6.7-6,13.3-6,6.7,6,13.4,6"/><path class="cls-5" d="M1154.1,170.9c6.7,0,6.7,6,13.4,6s6.7-6,13.3-6,6.7,6,13.4,6,6.7-6,13.4-6,6.7,6,13.4,6,6.6-6,13.3-6,6.7,6,13.4,6"/><path class="cls-5" d="M961.1,154.9c0,3.1-1.7,5.5-3.7,5.5s-3.6-2.4-3.6-5.5,1.6-5.4,3.6-5.4S961.1,151.9,961.1,154.9Z"/><path class="cls-5" d="M1019.2,302.6c0,3-1.7,5.4-3.7,5.4s-3.6-2.4-3.6-5.4,1.6-5.5,3.6-5.5S1019.2,299.5,1019.2,302.6Z"/><path class="cls-5" d="M1257.9,353.8c0,3-1.7,5.5-3.7,5.5s-3.6-2.5-3.6-5.5,1.6-5.5,3.6-5.5S1257.9,350.8,1257.9,353.8Z"/><path class="cls-5" d="M1238.7,684.1c0,3.1-1.6,5.5-3.6,5.5s-3.7-2.4-3.7-5.5,1.6-5.4,3.7-5.4S1238.7,681.1,1238.7,684.1Z"/><path class="cls-5" d="M738.3,427.6c0,3-1.6,5.4-3.6,5.4s-3.7-2.4-3.7-5.4,1.6-5.5,3.7-5.5S738.3,424.5,738.3,427.6Z"/><path class="cls-8" d="M1247.9,468.6c4.7-.4,8.4-6.2,8.4-13.3s-4-13.3-8.9-13.3a5.8,5.8,0,0,0-2.6.6c-1.5-9.3-7.1-16.2-13.7-16.2s-12.2,6.8-13.8,15.9a5.8,5.8,0,0,0-1.9-.3c-4.9,0-8.9,6-8.9,13.3s3.6,12.7,8.2,13.2Z"/><path class="cls-8" d="M843.5,188.2c4.9-.4,8.8-6.4,8.8-13.9s-4.2-13.8-9.3-13.8a6.6,6.6,0,0,0-2.7.6c-1.5-9.7-7.4-16.9-14.3-16.9s-12.7,7.1-14.4,16.6a6.4,6.4,0,0,0-2-.3c-5.1,0-9.3,6.2-9.3,13.8s3.8,13.3,8.6,13.9Z"/><line class="cls-8" x1="802.3" y1="269.4" x2="802.3" y2="275.7"/><line class="cls-8" x1="788.8" y1="280.5" x2="792.5" y2="283.6"/><line class="cls-8" x1="788.5" y1="303.4" x2="792.2" y2="300.2"/><line class="cls-8" x1="801.7" y1="315.2" x2="801.7" y2="308.9"/><line class="cls-8" x1="815.1" y1="304.1" x2="811.4" y2="301"/><line class="cls-8" x1="815.4" y1="281.2" x2="811.7" y2="284.4"/><line class="cls-8" x1="1199.4" y1="262.3" x2="1199.4" y2="268.5"/><line class="cls-8" x1="1186" y1="273.3" x2="1189.7" y2="276.5"/><line class="cls-8" x1="1185.7" y1="296.2" x2="1189.4" y2="293.1"/><line class="cls-8" x1="1198.8" y1="308.1" x2="1198.8" y2="301.8"/><line class="cls-8" x1="1212.2" y1="297" x2="1208.6" y2="293.9"/><line class="cls-8" x1="1212.5" y1="274.1" x2="1208.9" y2="277.2"/><ellipse class="cls-9" cx="978.2" cy="741.4" rx="220.4" ry="14.3"/><path class="cls-10" d="M1145.2,631.8c.4,5.9,6.1-95.6,26.2-129.9C1172,505,1168.7,591.8,1145.2,631.8Z"/><path class="cls-10" d="M1135.4,674.7c11.4-24.6,16.1-68.4,16-70.1l-2.2.2h0c-.1,3.2-4.9,44.9-15.7,68.1Z"/><path class="cls-10" d="M1125.6,672c18.9-39.8,51.9-60.4,54.1-59h0l.7,1.9-1.3-.3v1.5c-2.8.2-33.9,20.2-51.8,57.8Zm52.7-57.7a1.8,1.8,0,0,0,.2,1.3l.6-1Z"/><path class="cls-10" d="M1129.7,675.1c14-26.5,28.2-53.9,42.1-81.5l-1.7-2c-13.9,27.6-28.1,55-42.1,81.4Z"/><path class="cls-10" d="M1165.9,601.8c-.8,3.8,54.1-119.1,88.3-91.3C1253.5,515.5,1218.7,569.1,1165.9,601.8Z"/><path class="cls-11" d="M1157.3,616.7s7.6-28.8,19.5-68c11.8-37.6,27.9-85.6,45.4-89.4C1222.4,465.6,1200.4,571.7,1157.3,616.7Z"/><path class="cls-11" d="M1155.2,634.4c-.8-2.4,72.4-87.1,99.8-31.9C1254.7,606,1216.5,605.6,1155.2,634.4Z"/><path class="cls-10" d="M848.3,589.6c-.3,5.9-6-95.7-26.2-129.9C821.5,462.8,824.8,549.6,848.3,589.6Z"/><path class="cls-10" d="M858.2,632.5c-11.5-24.6-16.1-68.5-16.1-70.1l2.2.2h0c.2,3.2,4.9,44.9,15.7,68.1Z"/><path class="cls-10" d="M866.1,631.7c-17.9-37.6-49-57.6-51.7-57.8v-1.5l-1.3.3.7-1.9h0c2.2-1.4,35.2,19.2,54.1,58.9Zm-51.7-59.3.6,1a2.5,2.5,0,0,0,.3-1.3Z"/><path class="cls-10" d="M863.8,632.9c-14-26.5-28.2-53.9-42.1-81.5l1.8-2c13.9,27.6,28,55,42.1,81.4Z"/><path class="cls-10" d="M827.7,559.6c.7,3.8-54.2-119.1-88.4-91.4C740,473.3,774.8,526.9,827.7,559.6Z"/><path class="cls-11" d="M836.3,574.5s-7.7-28.9-19.5-68c-11.9-37.6-28-85.6-45.5-89.4C771.2,423.4,793.1,529.5,836.3,574.5Z"/><path class="cls-11" d="M838.4,592.2c.7-2.4-72.5-87.1-99.9-31.9C738.8,563.8,777,563.4,838.4,592.2Z"/><rect class="cls-12" x="808.1" y="341.9" width="353.2" height="376.06" rx="5.5"/><rect class="cls-6" x="826.2" y="377.2" width="317.1" height="292.7"/><path class="cls-13" d="M992.8,697.7H978.7c-2.2,0-4-2.7-4-6h0c0-3.4,1.8-6,4-6h14.1c2.2,0,4,2.6,4,6h0C996.8,695,995,697.7,992.8,697.7Z"/><path class="cls-12" d="M1170,741.5H799.2c-11.2,0-20.3-13.7-20.3-30.4h411.4C1190.3,727.8,1181.2,741.5,1170,741.5Z"/><path class="cls-13" d="M957,713.3a10.5,10.5,0,0,0,10.4,10.5H1004a10.5,10.5,0,0,0,10.5-10.5,7.8,7.8,0,0,0-.3-2.2h-57A15,15,0,0,0,957,713.3Z"/><line class="cls-14" x1="826.3" y1="594.2" x2="826.3" y2="616"/><line class="cls-14" x1="826.3" y1="433.1" x2="826.3" y2="568.2"/><line class="cls-14" x1="1099.7" y1="669" x2="1114.3" y2="669"/><line class="cls-14" x1="992" y1="669" x2="1082.3" y2="669"/><polyline class="cls-14" points="1051.1 375.8 1143.3 375.8 1143.3 560.9"/><path class="cls-9" d="M1223.7,773.9c0,5.4-41.7,10.1-93.1,10.3s-93.2-4.1-93.2-9.5,41.7-10.1,93.2-10.3S1223.7,768.4,1223.7,773.9Z"/><path class="cls-15" d="M1051.6,785.7h-.2l-17.8-15.8,15.9-21.6c.1-.2.2-.2.3-.2h.1l12.8,8.2,1.1,17.4-12,12Z"/><path class="cls-13" d="M1049.9,749.2l11.9,7.5.9,16.5-11.1,11.2-16.7-14.7,15-20.5m-.1-2.2a1.4,1.4,0,0,0-1.1.6L1032.2,770l18.6,16.4a1.1,1.1,0,0,0,.8.3,1.2,1.2,0,0,0,.9-.4l12.3-12.3-1.1-18.4-13.2-8.4a1.1,1.1,0,0,0-.7-.2Z"/><path class="cls-16" d="M1134.7,753.3a11,11,0,0,1,.2,2.4c.1,1.2.1,2.1.1,2.4.1,5.2-.7,12.9-5.1,16.3l86.9-11.5c4.4-3.4,5.2-11.1,5.1-16.2,0-.4,0-1.3-.1-2.5a11.7,11.7,0,0,0-.2-2.4c-.5-5-2.1-12.4-6.9-14.7l-86.9,11.5C1132.6,740.9,1134.2,748.2,1134.7,753.3Z"/><path class="cls-13" d="M1041.7,773.1c0-.6-.1-2.1-.2-4.2s-.3-3.5-.3-4.1l-.6-4.4-7,9.7,8,7.6C1041.7,776.1,1041.7,774.6,1041.7,773.1Z"/><polygon class="cls-17" points="1213.8 763.3 1052 784.7 1051.3 772.8 1213.1 751.4 1213.8 763.3"/><polygon class="cls-18" points="1213.1 751.4 1051.3 772.8 1050.5 760.8 1212.4 739.5 1213.1 751.4"/><polygon class="cls-17" points="1212.4 739.5 1050.5 760.8 1049.8 748.9 1211.7 727.5 1212.4 739.5"/><rect class="cls-19" x="1006.9" y="411.2" width="108.4" height="64.43" rx="2.3"/><ellipse class="cls-20" cx="1028.8" cy="443.4" rx="12.7" ry="19"/><polygon class="cls-21" points="1024.9 433.5 1024.9 453.3 1035.5 443.4 1024.9 433.5"/><line class="cls-19" x1="1054.1" y1="434.9" x2="1105.2" y2="434.9"/><line class="cls-19" x1="1054.1" y1="455.9" x2="1105.2" y2="455.9"/><line class="cls-19" x1="1054.1" y1="445.4" x2="1081.9" y2="445.4"/><rect class="cls-19" x="1006.9" y="489.3" width="108.4" height="64.43" rx="2.3"/><ellipse class="cls-20" cx="1028.8" cy="521.5" rx="12.7" ry="19"/><polygon class="cls-21" points="1024.9 511.6 1024.9 531.4 1035.5 521.5 1024.9 511.6"/><line class="cls-19" x1="1054.1" y1="513" x2="1105.2" y2="513"/><line class="cls-19" x1="1054.1" y1="534" x2="1105.2" y2="534"/><line class="cls-19" x1="1054.1" y1="523.5" x2="1081.9" y2="523.5"/><rect class="cls-19" x="1006.9" y="567.4" width="108.4" height="64.43" rx="2.3"/><ellipse class="cls-20" cx="1028.8" cy="599.6" rx="12.7" ry="19"/><polygon class="cls-21" points="1024.9 589.7 1024.9 609.5 1035.5 599.6 1024.9 589.7"/><line class="cls-19" x1="1054.1" y1="591.1" x2="1105.2" y2="591.1"/><line class="cls-19" x1="1054.1" y1="612.1" x2="1105.2" y2="612.1"/><line class="cls-19" x1="1054.1" y1="601.6" x2="1081.9" y2="601.6"/><polygon class="cls-22" points="973.9 427.6 965 415.6 965 411.2 856.2 411.2 856.2 611.2 872.4 636 981.9 636 981.9 427.7 973.9 427.6"/><polygon class="cls-6" points="965 415.6 965 611.2 856.2 611.2 868.4 629.6 978.2 629.6 978.2 433.3 965 415.6"/><polygon class="cls-19" points="965 411.2 856.2 411.2 856.2 607.8 856.2 611.2 965 611.2 965 411.2"/><polygon class="cls-23" points="942.6 447.5 936 438.8 929.3 447.5 929.3 411.2 942.6 411.2 942.6 447.5"/><polyline class="cls-14" points="868.4 629.6 978.2 629.6 978.2 433.3 965 415.6 965 411.2 856.2 411.2 856.2 611.2"/><line class="cls-14" x1="965" y1="611.2" x2="978.2" y2="629.6"/><line class="cls-14" x1="973.9" y1="598.3" x2="973.9" y2="479.6"/><line class="cls-14" x1="969.7" y1="498.9" x2="969.7" y2="429.6"/><line class="cls-14" x1="900.2" y1="620.4" x2="953.5" y2="620.4"/><polyline class="cls-14" points="973.9 427.6 981.9 427.7 981.9 636 872.4 636 856.2 611.2"/><path class="cls-19" d="M911.2,649.6H785.9c-11.7,0-21.1,14.1-21.1,31.6s9.4,31.5,21.1,31.5H911.2v-8.4s-10.7-18,0-46Z"/><path class="cls-21" d="M911.2,658.3H787.1c-8.5,0-15.4,10.3-15.4,23s6.9,23,15.4,23H911.2S900.5,686.3,911.2,658.3Z"/><line class="cls-19" x1="906.5" y1="669" x2="830" y2="669"/><line class="cls-19" x1="807.8" y1="681.2" x2="786.1" y2="681.2"/><line class="cls-19" x1="875" y1="681.2" x2="815" y2="681.2"/><line class="cls-19" x1="856.4" y1="693.3" x2="792.7" y2="693.3"/><polygon class="cls-24" points="898.3 698.2 891.2 690.1 884.1 698.2 884.1 669 898.3 669 898.3 698.2"/><path class="cls-25" d="M785.9,649.6c-11.7,0-21.1,14.1-21.1,31.6s9.4,31.5,21.1,31.5H911.2v-8.4H787.1c-8.5,0-15.4-10.3-15.4-23s6.9-23,15.4-23H911.2v-8.7Z"/><path class="cls-19" d="M783.2,586.4H908.5c11.7,0,21.1,14.1,21.1,31.5s-9.4,31.6-21.1,31.6H783.2v-8.4s10.7-18,0-46Z"/><path class="cls-21" d="M783.2,595.1H907.4c8.4,0,15.3,10.3,15.3,23s-6.9,23-15.3,23H783.2S793.9,623.1,783.2,595.1Z"/><line class="cls-19" x1="787.9" y1="605.7" x2="864.4" y2="605.7"/><line class="cls-19" x1="886.6" y1="617.9" x2="908.3" y2="617.9"/><line class="cls-19" x1="819.5" y1="617.9" x2="879.4" y2="617.9"/><line class="cls-19" x1="838" y1="630.1" x2="901.7" y2="630.1"/><polygon class="cls-24" points="796.1 635 803.2 626.9 810.4 635 810.4 605.7 796.1 605.7 796.1 635"/><path class="cls-25" d="M908.3,588.8c11.7,0,21.1,14.1,21.1,31.5s-9.4,31.6-21.1,31.6H783v-8.4H907.1c8.5,0,15.4-10.3,15.4-23s-6.9-23-15.4-23H783v-8.7Z"/><path class="cls-13" d="M989.3,360.9c0,4-2.1,7.2-4.7,7.2s-4.8-3.2-4.8-7.2,2.1-7.1,4.8-7.1S989.3,357,989.3,360.9Z"/><ellipse class="cls-9" cx="759.8" cy="793.8" rx="32.6" ry="7.1"/><path class="cls-14" d="M729.5,762.8H719.4c-4.6,0-8.4-6.1-8.4-13.6V731.4c0-7.5,3.8-13.6,8.4-13.6h5.9"/><path class="cls-13" d="M800.5,681.8c0,5.2-18,9.4-40.3,9.4s-40.4-4.2-40.4-9.4,18.1-9.4,40.4-9.4S800.5,676.6,800.5,681.8Z"/><path class="cls-16" d="M750.1,794.3h20.1c7.5-.6,13.8-1.9,17.7-3.7l11.2-108.4H799c0,5-17.4,9-38.8,9s-38.9-4-38.9-9h-.1l11.2,108.4C736.3,792.4,742.6,793.7,750.1,794.3Z"/><path class="cls-14" d="M761.6,663.9V654c0-3.6-2-6.5-4.5-6.5H746.8c-2.5,0-4.5-2.8-4.5-6.4h0c0-3.5,2-6.4,4.5-6.4h16.9c2.4,0,4.4-2.9,4.4-6.5h0c0-3.5-2-6.4-4.4-6.4H735.8c-2.4,0-4.4-2.9-4.4-6.5v-1c0-3.5,2-6.4,4.4-6.4h19"/><path class="cls-26" d="M1151.5,320.4c-13.9,1.5-25.2,18-26.7,38.7a63.7,63.7,0,0,0,2.4,22.6,7.7,7.7,0,0,1,.1,4l-2.8,13.3c-.6,2.5.9,4.9,2.6,4.3l8.4-3.2a2.9,2.9,0,0,1,2.9.7c5.1,4.7,11.2,7.1,17.7,6.3,14.2-1.6,25.6-18.7,26.7-39.8C1184.2,340.5,1169.4,318.3,1151.5,320.4Z"/><path class="cls-6" d="M1166.6,364.5s.3-2.2.3-3.3c0-6.2-3.4-11.3-7.5-11.3-2.4,0-4.5,1.6-5.8,4.1-1.4-2.5-3.5-4.1-5.8-4.1-4.2,0-7.6,5.1-7.6,11.3a18.6,18.6,0,0,0,.4,3.3,15.4,15.4,0,0,0,.6,2.1,40.9,40.9,0,0,0,12.4,18.6,42.6,42.6,0,0,0,12.4-18.6Z"/><line class="cls-8" x1="779.7" y1="767.3" x2="779.1" y2="773.5"/><line class="cls-8" x1="785" y1="709.2" x2="780.5" y2="758"/><line class="cls-1" x1="1278.6" y1="403.9" x2="1278.6" y2="403.9"/></g></svg>