<svg id="Layer_1" data-name="Layer 1" xmlns="http://www.w3.org/2000/svg" xmlns:xlink="http://www.w3.org/1999/xlink" viewBox="0 0 2165.5 718"><defs><style>.cls-1,.cls-14,.cls-19,.cls-20,.cls-5,.cls-8{fill:none;}.cls-2{fill:#f4f3ed;}.cls-3{clip-path:url(#clip-path);}.cls-4{fill:#312c39;}.cls-5,.cls-8{stroke:#fff;}.cls-14,.cls-17,.cls-18,.cls-26,.cls-5,.cls-8{stroke-miterlimit:10;}.cls-14,.cls-16,.cls-19,.cls-21,.cls-26,.cls-5,.cls-8{stroke-width:2px;}.cls-21,.cls-6{fill:#fff;}.cls-7{fill:#79748c;}.cls-14,.cls-16,.cls-19,.cls-20,.cls-21,.cls-26,.cls-8{stroke-linecap:round;}.cls-9{fill:#d6d6d6;}.cls-10{fill:#7eed9a;}.cls-11{fill:#5cb880;}.cls-12{fill:#cbd9f9;}.cls-13{fill:#33313b;}.cls-14,.cls-16,.cls-19,.cls-21,.cls-26{stroke:#33313b;}.cls-15{fill:#f7d4a6;}.cls-16,.cls-26{fill:#ffa74a;}.cls-16,.cls-19,.cls-20,.cls-21{stroke-linejoin:round;}.cls-17{fill:#ebc5ec;}.cls-17,.cls-18{stroke:#000;}.cls-18,.cls-25{fill:#ac79c9;}.cls-20{stroke:#b94daa;stroke-dasharray:4;}.cls-22{fill:#d58136;}.cls-23{fill:#92b577;}.cls-24{fill:#a8c4b1;}</style><clipPath id="clip-path" transform="translate(17.3 175)"><path class="cls-1" d="M932.6,0h905c14.8,0,26.7,9.3,26.7,20.7v485c0,11.4-11.9,20.7-26.7,20.7h-905c-14.7,0-26.7-9.3-26.7-20.7V20.7C905.9,9.3,917.9,0,932.6,0Z"/></clipPath></defs><g id="OBJECTS"><path class="cls-2" d="M9.5-11.1H1864.9c14.8,0,26.8,7.2,26.8,16.2V526.8c0,8.9-12,16.2-26.8,16.2H9.5c-14.8,0-26.8-7.3-26.8-16.2V5.1C-17.3-3.9-5.3-11.1,9.5-11.1Z" transform="translate(17.3 175)"/><g class="cls-3"><path class="cls-4" d="M1206.4-13.8c-40.2,76.5,19.7,162.1,35.5,184.4,156.6,223.1,691.7,281.5,853,104.2C2170.5,191.8,2162,59,2093-28,1912.8-255.6,1300.6-193.6,1206.4-13.8Z" transform="translate(17.3 175)"/></g><path class="cls-5" d="M1633,117.3v17.4s-5.7,6.9-25.1,6.9-25-6.9-25-6.9V117.3" transform="translate(17.3 175)"/><line class="cls-5" x1="1643.5" y1="294.3" x2="1643.5" y2="322.1"/><path class="cls-6" d="M1607.9,102.8l33.2,10.1-33.2,11.5-33.1-11.5,33.1-10.1m0-2.7h-.6l-37.7,11.4c-.9.3-1.3,1.1-.8,1.8a1,1,0,0,0,.8.6l37.7,13.2h1.3l37.7-13.2a1.2,1.2,0,0,0,.8-1.8,1.3,1.3,0,0,0-.8-.6l-37.7-11.4Z" transform="translate(17.3 175)"/><path class="cls-7" d="M1626.2,153.8c-2.1,0-3.8-1.3-3.8-3h0c.1-1.6,1.9-2.9,4-2.8s3.7,1.4,3.6,3.1S1628.3,153.8,1626.2,153.8Z" transform="translate(17.3 175)"/><path class="cls-6" d="M1626.2,148.4c1.6.1,2.8,1.1,2.8,2.3s-1.1,2.3-2.8,2.4h0c-1.6-.1-2.9-1.1-2.9-2.4a2.9,2.9,0,0,1,2.9-2.3m0-1.3c-2.6-.2-5,1.4-5.2,3.5s1.9,3.8,4.5,4,5-1.4,5.2-3.5v-.4C1630.7,148.8,1628.7,147.2,1626.2,147.1Z" transform="translate(17.3 175)"/><path class="cls-5" d="M1388.5,153.7c7.3,0,7.3,8,14.7,8s7.3-8,14.8-8,7.2,8,14.7,8,7.4-8,14.7-8,7.5,8,14.7,8,7.5-8,14.9-8,7.3,8,14.8,8" transform="translate(17.3 175)"/><path class="cls-5" d="M1708.7,100.6c7.5,0,7.5,8.1,14.9,8.1s7.3-8.1,14.7-8.1,7.3,8.1,14.8,8.1,7.2-8.1,14.7-8.1,7.4,8.1,14.7,8.1,7.5-8.1,14.7-8.1,7.5,8.1,14.9,8.1" transform="translate(17.3 175)"/><path class="cls-5" d="M1495.8,93.3c0,1.7-1.7,3.2-4,3.3h0c-2.4-.3-3.9-2.1-3.4-3.9a3.9,3.9,0,0,1,3.4-2.7c2.2,0,4,1.4,4,3.1Z" transform="translate(17.3 175)"/><path class="cls-5" d="M1559.9,182.2c0,1.7-1.8,3.1-4,3.1s-4-1.3-4-3h0c0-1.7,1.8-3.1,4-3.1s4,1.4,4,3.1Z" transform="translate(17.3 175)"/><path class="cls-5" d="M1823.2,213.1c0,1.7-1.7,3.1-3.9,3.1s-4-1.4-4-3.1h0c0-1.7,1.7-3.1,3.9-3.1s4,1.4,4,3.1Z" transform="translate(17.3 175)"/><path class="cls-5" d="M1802.1,412c0,1.7-1.8,3.1-4,3.1s-4-1.4-4-3.1h0c0-1.7,1.8-3.1,4-3.1s4,1.4,4,3.1Z" transform="translate(17.3 175)"/><path class="cls-5" d="M1249.9,257.4c0,1.7-1.8,3.1-4,3.1s-4-1.4-4-3.1,1.8-3.1,4-3.1,4,1.4,4,3.1Z" transform="translate(17.3 175)"/><path class="cls-8" d="M1812.3,282.1c5.3-.3,9.4-3.8,9.2-7.9s-4.1-7.9-9.7-8.1h0a13.5,13.5,0,0,0-2.9.4c-1.5-5.6-7.8-9.6-15.1-9.8s-13.6,4.1-15.3,9.7l-2-.3c-5.6.2-10,3.7-9.9,8.1s3.8,7.5,9,7.9Z" transform="translate(17.3 175)"/><path class="cls-8" d="M1366,113.3c5.9-.1,10.6-4,10.5-8.6s-5.1-8.2-11-8.1a9.5,9.5,0,0,0-3,.4c-1.5-5.8-8.1-10-15.8-10.2s-14.2,4.3-15.9,10.1l-2.3-.3c-5.9-.1-10.9,3.5-11,8.1s4.4,8.4,10.4,8.6H1366Z" transform="translate(17.3 175)"/><line class="cls-8" x1="1337.9" y1="337.3" x2="1337.9" y2="341"/><line class="cls-8" x1="1323" y1="344" x2="1327" y2="345.9"/><line class="cls-8" x1="1322.6" y1="357.8" x2="1326.6" y2="355.8"/><line class="cls-8" x1="1337.2" y1="364.9" x2="1337.2" y2="361"/><line class="cls-8" x1="1351.9" y1="358.2" x2="1347.9" y2="356.3"/><line class="cls-8" x1="1352.3" y1="344.4" x2="1348.3" y2="346.3"/><line class="cls-8" x1="1776.1" y1="333" x2="1776.1" y2="336.7"/><line class="cls-8" x1="1761.3" y1="339.7" x2="1765.3" y2="341.6"/><line class="cls-8" x1="1761" y1="353.4" x2="1765" y2="351.5"/><line class="cls-8" x1="1775.4" y1="360.6" x2="1775.4" y2="356.7"/><line class="cls-8" x1="1790.3" y1="353.9" x2="1786.3" y2="352"/><line class="cls-8" x1="1790.6" y1="340.1" x2="1786.6" y2="342"/><ellipse class="cls-9" cx="1531.9" cy="621.5" rx="243.3" ry="8.6"/><path class="cls-10" d="M1699,380.4c.3,3.5,6.6-57.5,28.9-78.2C1728.5,304.1,1725,356.3,1699,380.4Z" transform="translate(17.3 175)"/><path class="cls-10" d="M1688.1,406.2c12.6-14.8,17.8-41.2,17.7-42.1h-2.5c-.1,1.9-5.3,27.1-17.3,41Z" transform="translate(17.3 175)"/><path class="cls-10" d="M1677.3,404.6c21-23.9,57.2-36.4,59.8-35.6h0l.7,1.2h-1.4v1c-3.1,0-37.4,12.1-57.2,34.7Zm58.1-34.8a1.1,1.1,0,0,0,.3.8l.7-.6Z" transform="translate(17.3 175)"/><path class="cls-10" d="M1681.8,406.5c15.5-16,31.2-32.5,46.5-49.1l-1.9-1.2c-15.3,16.6-31,33.1-46.5,49.1Z" transform="translate(17.3 175)"/><path class="cls-10" d="M1721.7,362.3c-.7,2.3,59.8-71.6,97.6-55C1818.6,310.4,1780.1,342.6,1721.7,362.3Z" transform="translate(17.3 175)"/><path class="cls-11" d="M1712.3,371.3s8.4-17.3,21.5-40.9,30.9-51.5,50.1-53.8C1784.1,280.3,1759.8,344.2,1712.3,371.3Z" transform="translate(17.3 175)"/><path class="cls-11" d="M1709.9,381.9c-.7-1.3,79.9-52.3,110.2-19C1819.8,364.9,1777.7,364.6,1709.9,381.9Z" transform="translate(17.3 175)"/><path class="cls-10" d="M1371.3,354.9c-.3,3.7-6.7-57.5-28.9-78.2C1341.7,278.6,1345.4,330.9,1371.3,354.9Z" transform="translate(17.3 175)"/><path class="cls-10" d="M1382.3,380.8c-12.7-14.8-17.9-41.1-17.7-42.2h2.4c0,1.9,5.4,27,17.2,40.9Z" transform="translate(17.3 175)"/><path class="cls-10" d="M1390.9,380.3c-19.7-22.5-54-34.6-57-34.7v-1l-1.4.3.7-1.2h0c2.4-.8,38.8,11.5,59.8,35.5Zm-57-35.7.7.7a.8.8,0,0,0,.2-.8Z" transform="translate(17.3 175)"/><path class="cls-10" d="M1388.5,381.1c-15.6-16-31.2-32.5-46.6-49.1l2.1-1.2c15.2,16.6,30.8,33.1,46.4,49Z" transform="translate(17.3 175)"/><path class="cls-10" d="M1348.5,337c.8,2.2-59.6-71.8-97.4-55.1C1251.8,285,1290.3,317.2,1348.5,337Z" transform="translate(17.3 175)"/><path class="cls-11" d="M1358,346s-8.3-17.5-21.5-41-30.8-51.5-50.2-53.9C1286.3,255,1310.5,318.8,1358,346Z" transform="translate(17.3 175)"/><path class="cls-11" d="M1360.3,356.6c.8-1.5-79.9-52.5-110.1-19.2C1250.6,339.5,1292.7,339.2,1360.3,356.6Z" transform="translate(17.3 175)"/><path class="cls-12" d="M1336.5,205.9h370.6c5.3,0,9.6,3.3,9.6,7.3V424.9c0,4.1-4.3,7.4-9.6,7.4H1336.5c-5.2,0-9.5-3.3-9.5-7.4V213.2C1327,209.2,1331.3,205.9,1336.5,205.9Z" transform="translate(17.3 175)"/><rect class="cls-6" x="1364.2" y="402.2" width="349.8" height="176.24"/><path class="cls-13" d="M1530.8,420h-15.6c-2.5,0-4.5-1.7-4.4-3.6h0c0-1.9,1.9-3.5,4.4-3.6h15.6c2.5.1,4.5,1.7,4.5,3.6h0C1535.3,418.4,1533.3,420,1530.8,420Z" transform="translate(17.3 175)"/><path class="cls-12" d="M1726.4,446.5H1317.1c-12.3,0-22.5-8.2-22.5-18.4h454.1C1748.7,438.3,1738.7,446.5,1726.4,446.5Z" transform="translate(17.3 175)"/><path class="cls-13" d="M1491.2,429.4c0,3.7,5.2,6.5,11.7,6.5h40.3c6.4,0,11.5-2.8,11.5-6.5a5.9,5.9,0,0,0-.2-1.3h-62.9A6.5,6.5,0,0,0,1491.2,429.4Z" transform="translate(17.3 175)"/><line class="cls-14" x1="1364.4" y1="532.9" x2="1364.4" y2="546"/><line class="cls-14" x1="1364.4" y1="435.9" x2="1364.4" y2="517.2"/><line class="cls-14" x1="1666" y1="577.9" x2="1682.2" y2="577.9"/><line class="cls-14" x1="1547.2" y1="577.9" x2="1646.8" y2="577.9"/><polyline class="cls-14" points="1612.3 401.4 1714.2 401.4 1714.2 512.8"/><path class="cls-9" d="M1785.6,465.9c0,3.4-46.1,6.1-102.7,6.2s-102.9-2.4-102.9-5.6,46.1-6.1,102.9-6.2S1785.6,462.7,1785.6,465.9Z" transform="translate(17.3 175)"/><polygon class="cls-15" points="1594.3 638.4 1610.9 626.2 1624.6 630.9 1625.7 640.4 1613 647.4 1594.3 638.4"/><path class="cls-13" d="M1594,452.6l11.8,4.2.8,7.9-11,6.1-15.6-7.7,14-10.5m-.3-2.8a2.8,2.8,0,0,0-1.3.3l-18.2,13.5,20.5,9.8,1,.3,1.1-.3,13.5-7.3-1.2-11.2-14.8-4.9Z" transform="translate(17.3 175)"/><path class="cls-16" d="M1687.4,453.6c.1.5.1,1,.2,1.5a6.1,6.1,0,0,1,.1,1.4c0,3.1-.7,7.7-5.5,9.8l95.8-6.9c4.9-2.1,5.7-6.8,5.6-9.8v-1.5a7.4,7.4,0,0,0-.4-1.4c-.5-3-2.2-7.5-7.4-8.8l-96,6.8C1685,446.1,1686.7,450.5,1687.4,453.6Z" transform="translate(17.3 175)"/><path class="cls-13" d="M1584.6,465.5a20.9,20.9,0,0,0-.1-2.5,7.8,7.8,0,0,0-.4-2.6,11.7,11.7,0,0,0-.7-2.5l-7.6,5.7,8.8,4.6Z" transform="translate(17.3 175)"/><polygon class="cls-17" points="1792 634.7 1613.4 647.5 1612.5 640.4 1791.2 627.5 1792 634.7"/><polygon class="cls-18" points="1791.2 627.5 1612.5 640.4 1611.8 633.2 1790.5 620.3 1791.2 627.5"/><polygon class="cls-17" points="1790.5 620.3 1611.8 633.2 1610.9 626.1 1789.6 613.2 1790.5 620.3"/><path class="cls-19" d="M1550.3,247.6h111.6c2.2,0,4,1.4,4,3.1v32.6c0,1.7-1.8,3.1-4,3.1H1550.3c-2.2,0-4-1.4-4-3.1V250.7C1546.3,249,1548.1,247.6,1550.3,247.6Z" transform="translate(17.3 175)"/><ellipse class="cls-20" cx="1587.7" cy="442.1" rx="14" ry="11.4"/><polygon class="cls-21" points="1583.4 436 1583.4 448 1595.2 442.1 1583.4 436"/><line class="cls-19" x1="1615.8" y1="437" x2="1672.1" y2="437"/><line class="cls-19" x1="1615.8" y1="449.6" x2="1672.1" y2="449.6"/><line class="cls-19" x1="1615.8" y1="443.3" x2="1646.5" y2="443.3"/><path class="cls-19" d="M1550.3,294.7h111.6c2.2,0,4,1.4,4,3.1v32.6c0,1.7-1.8,3.1-4,3.1H1550.3c-2.2,0-4-1.4-4-3.1V297.8C1546.3,296.1,1548.1,294.7,1550.3,294.7Z" transform="translate(17.3 175)"/><ellipse class="cls-20" cx="1587.7" cy="489.1" rx="14" ry="11.4"/><polygon class="cls-21" points="1583.4 483.2 1583.4 495.1 1595.2 489.1 1583.4 483.2"/><line class="cls-19" x1="1615.8" y1="484" x2="1672.1" y2="484"/><line class="cls-19" x1="1615.8" y1="496.6" x2="1672.1" y2="496.6"/><line class="cls-19" x1="1615.8" y1="490.3" x2="1646.5" y2="490.3"/><path class="cls-19" d="M1550.3,341.7h111.6c2.2,0,4,1.3,4,3v32.7c0,1.7-1.8,3.1-4,3.1H1550.3c-2.2,0-4-1.4-4-3.1V344.7C1546.3,343,1548.1,341.7,1550.3,341.7Z" transform="translate(17.3 175)"/><ellipse class="cls-20" cx="1587.7" cy="536.2" rx="14" ry="11.4"/><polygon class="cls-21" points="1583.4 530.1 1583.4 542.1 1595.2 536.2 1583.4 530.1"/><line class="cls-19" x1="1615.8" y1="531.1" x2="1672.1" y2="531.1"/><line class="cls-19" x1="1615.8" y1="543.7" x2="1672.1" y2="543.7"/><line class="cls-19" x1="1615.8" y1="537.4" x2="1646.5" y2="537.4"/><polygon class="cls-22" points="1527.3 432.6 1517.4 425.3 1517.4 422.6 1397.3 422.6 1397.3 543.1 1415.1 558 1535.9 558 1535.9 432.6 1527.3 432.6"/><polygon class="cls-6" points="1517.4 425.3 1517.4 543.1 1397.3 543.1 1410.8 554.1 1531.9 554.1 1531.9 435.9 1517.4 425.3"/><polygon class="cls-19" points="1517.4 422.6 1397.3 422.6 1397.3 541 1397.3 543.1 1517.4 543.1 1517.4 422.6"/><polygon class="cls-23" points="1492.6 444.5 1485.3 439.3 1478 444.5 1478 422.6 1492.6 422.6 1492.6 444.5"/><polyline class="cls-14" points="1410.8 554.1 1531.9 554.1 1531.9 435.9 1517.4 425.3 1517.4 422.6 1397.3 422.6 1397.3 543.1"/><line class="cls-14" x1="1517.4" y1="543.1" x2="1531.9" y2="554.1"/><line class="cls-14" x1="1527.3" y1="535.4" x2="1527.3" y2="463.8"/><line class="cls-14" x1="1522.6" y1="475.5" x2="1522.6" y2="433.8"/><line class="cls-14" x1="1445.8" y1="548.6" x2="1504.7" y2="548.6"/><polyline class="cls-14" points="1527.3 432.6 1535.9 432.6 1535.9 558 1415.1 558 1397.3 543.1"/><path class="cls-19" d="M1440.7,391.2H1302.4c-12.8,0-23.2,8.4-23.2,18.9s10.4,19.1,23.2,19.1h138.3v-5.1s-11.7-10.8,0-27.7Z" transform="translate(17.3 175)"/><path class="cls-21" d="M1440.7,396.4H1303.8c-9.9,0-17.9,6.2-17.9,13.8s8,13.9,17.9,13.9h136.9S1429,413.3,1440.7,396.4Z" transform="translate(17.3 175)"/><line class="cls-19" x1="1452.7" y1="577.9" x2="1368.4" y2="577.9"/><line class="cls-19" x1="1343.9" y1="585.3" x2="1320" y2="585.3"/><line class="cls-19" x1="1418.1" y1="585.3" x2="1351.9" y2="585.3"/><line class="cls-19" x1="1397.6" y1="592.5" x2="1327.3" y2="592.5"/><polygon class="cls-24" points="1443.9 595.5 1435.9 590.6 1428.1 595.5 1428.1 577.9 1443.9 577.9 1443.9 595.5"/><path class="cls-25" d="M1302.4,391.2c-12.8,0-23.2,8.4-23.2,18.9s10.4,19.1,23.2,19.1h138.3v-5.1H1303.8c-9.9,0-17.9-6.2-17.9-13.9s8-13.8,17.9-13.8h136.9v-5.2Z" transform="translate(17.3 175)"/><path class="cls-19" d="M1299.4,353.1h138.3c13,0,23.4,8.4,23.4,18.9s-10.4,19-23.4,19H1299.4v-5.1s11.8-10.7,0-27.6Z" transform="translate(17.3 175)"/><path class="cls-21" d="M1299.4,358.3h137.1c9.8,0,17.8,6.2,17.8,13.8s-8,13.8-17.8,13.8H1299.4S1311.2,375.2,1299.4,358.3Z" transform="translate(17.3 175)"/><line class="cls-19" x1="1321.9" y1="539.8" x2="1406.5" y2="539.8"/><line class="cls-19" x1="1430.9" y1="547.2" x2="1454.8" y2="547.2"/><line class="cls-19" x1="1356.8" y1="547.2" x2="1422.9" y2="547.2"/><line class="cls-19" x1="1377.2" y1="554.4" x2="1447.6" y2="554.4"/><polygon class="cls-24" points="1330.9 557.4 1338.9 552.5 1346.7 557.4 1346.7 539.8 1330.9 539.8 1330.9 557.4"/><path class="cls-25" d="M1437.5,354.5c12.9,0,23.3,8.5,23.3,19s-10.4,19-23.3,19H1299.3v-5.1h137c9.9,0,17.9-6.2,17.9-13.8s-8-13.8-17.9-13.8h-137v-5.3Z" transform="translate(17.3 175)"/><path class="cls-13" d="M1526.9,217.3c.1,2.3-2.2,4.2-5.2,4.3h0c-3-.5-5-2.7-4.4-5a5,5,0,0,1,4.4-3.5c2.9,0,5.2,1.8,5.2,4Z" transform="translate(17.3 175)"/><ellipse class="cls-9" cx="1290.9" cy="653" rx="36" ry="4.3"/><path class="cls-14" d="M1240.2,459.2h-11.1c-5.2,0-9.4-3.6-9.4-8.2V440.4c0-4.5,4.2-8.2,9.4-8.2h6.6" transform="translate(17.3 175)"/><path class="cls-13" d="M1318.7,410.5c0,3.2-20,5.6-44.7,5.6s-44.6-2.4-44.6-5.6,20-5.6,44.6-5.6S1318.7,407.4,1318.7,410.5Z" transform="translate(17.3 175)"/><path class="cls-16" d="M1262.9,478.3h22.3a137.1,137.1,0,0,0,19.4-2.2l12.3-65.3h0c0,2.9-19.2,5.3-42.9,5.3s-42.8-2.4-42.8-5.3h-.2l12.5,65.3A137.1,137.1,0,0,0,1262.9,478.3Z" transform="translate(17.3 175)"/><path class="cls-14" d="M1275.5,399.8v-6.1c.1-2-2-3.8-4.7-3.9h-11.6c-2.5.1-4.7-1.4-4.8-3.4v-.3h0c-.1-2.1,2-3.8,4.7-3.9h18.8c2.7,0,4.9-1.7,4.9-3.8h0c.1-2.1-2-3.8-4.7-3.9h-31c-2.7-.1-4.8-1.8-4.8-3.9V370c0-2.1,2.1-3.8,4.8-3.9h21" transform="translate(17.3 175)"/><path class="cls-26" d="M1705.9,192.8c-15.2,1-27.9,10.9-29.4,23.4a20.8,20.8,0,0,0,2.6,13.5,2.7,2.7,0,0,1,.1,2.6l-3.1,7.9a1.8,1.8,0,0,0,1.3,2.5,3.2,3.2,0,0,0,1.7.1l9.2-1.9a6.9,6.9,0,0,1,3.2.4,38.8,38.8,0,0,0,19.5,3.9c15.6-1.1,28.2-11.3,29.4-24C1742,205.1,1725.7,191.6,1705.9,192.8Z" transform="translate(17.3 175)"/><path class="cls-6" d="M1722.6,219.4a10.8,10.8,0,0,0,.3-1.9c.1-3.6-3.6-6.7-8.3-6.8a9.2,9.2,0,0,0-6.4,2.4,9.4,9.4,0,0,0-6.4-2.4c-4.7.1-8.4,3.2-8.3,6.8a5.8,5.8,0,0,0,.3,1.9l.7,1.4a31.3,31.3,0,0,0,13.7,11.2,30.8,30.8,0,0,0,13.7-11.2A9.1,9.1,0,0,0,1722.6,219.4Z" transform="translate(17.3 175)"/><line class="cls-8" x1="1312.9" y1="637.1" x2="1312.2" y2="640.8"/><line class="cls-8" x1="1318.8" y1="602.2" x2="1313.8" y2="631.4"/><line class="cls-1" x1="1855.4" y1="710.9" x2="1855.4" y2="710.9"/></g></svg>