<svg xmlns="http://www.w3.org/2000/svg" viewBox="0 0 867 643"><defs><style>.cls-1{isolation:isolate;}.cls-2{fill:#efb4d6;}.cls-3{fill:#9fd6cd;}.cls-31,.cls-4,.cls-5,.cls-7,.cls-8{fill:none;stroke-linecap:round;stroke-linejoin:round;}.cls-4,.cls-5,.cls-8{stroke:#e2a3c8;}.cls-5{stroke-dasharray:4 4;}.cls-6{fill:#d64caf;}.cls-7{stroke:#d64caf;}.cls-31,.cls-7,.cls-8{stroke-dasharray:4;}.cls-9{fill:#5275a0;opacity:0.2;mix-blend-mode:multiply;}.cls-10{fill:#fff;}.cls-11{fill:#2c323a;}.cls-12{fill:#f9c7ef;}.cls-13{fill:#0056ec;}.cls-14{fill:#c8dbfb;}.cls-15{fill:#89c1f4;}.cls-16{fill:#f2b8dd;}.cls-17{fill:#9ec6b3;}.cls-18{fill:#2f8c80;}.cls-19{fill:#0c2340;}.cls-20{fill:#ef7fc2;}.cls-21{fill:#ffb9a3;}.cls-22{fill:#be7ace;}.cls-23{fill:#047f76;}.cls-24{fill:#009790;}.cls-25{fill:#ef832b;}.cls-26{fill:#4a49ca;}.cls-27{fill:#36c;}.cls-28{fill:#39f;}.cls-29{fill:#84b774;}.cls-30{fill:#0b5147;}.cls-31{stroke:#79b7a6;}</style></defs><g class="cls-1"><g id="Layer_1" data-name="Layer 1"><ellipse class="cls-2" cx="293.26" cy="636.09" rx="74.83" ry="6.91"/><ellipse class="cls-3" cx="677.7" cy="636.09" rx="74.83" ry="6.91"/><path class="cls-4" d="M908.31,176.28c-.11-.66-.22-1.32-.34-2" transform="translate(-72.5 -27)"/><path class="cls-5" d="M907.16,170.4c-11.51-50.61-55.85-45.94-95.77-45.86l-682.55,1.39c-64.42.14-58.19,92.12-7.74,92,29-.06,40,53.8-10.12,53.91-31.77.06-31.06,42.12-7.22,46.31" transform="translate(-72.5 -27)"/><path class="cls-4" d="M105.74,318.42c.66.06,1.32.08,2,.08" transform="translate(-72.5 -27)"/><path class="cls-6" d="M115.66,316.76a9.27,9.27,0,1,1-10.7-7.5A9.19,9.19,0,0,1,115.66,316.76Z" transform="translate(-72.5 -27)"/><path class="cls-6" d="M917.44,180.41A9.27,9.27,0,1,1,910,169.74,9.27,9.27,0,0,1,917.44,180.41Z" transform="translate(-72.5 -27)"/><path class="cls-7" d="M749,283.06l156.61-.32A33.1,33.1,0,0,1,939,315.58h0a33.09,33.09,0,0,1-33.21,33l-107.13.22" transform="translate(-72.5 -27)"/><path class="cls-7" d="M275.16,396.79,165.63,397a18.68,18.68,0,0,0-18.75,18.61h0a18.69,18.69,0,0,0,18.83,18.54l31.93-.06" transform="translate(-72.5 -27)"/><path class="cls-8" d="M100.34,480.67C62.82,480.75,62,536.1,109.78,536l703.59-1.44c29.54-.06,32.65-45.63-3.86-45.55-72.66.15-75.07-34.12-34.73-34.21" transform="translate(-72.5 -27)"/><path class="cls-6" d="M109.12,479.13a9.27,9.27,0,1,1-10.7-7.5A9.19,9.19,0,0,1,109.12,479.13Z" transform="translate(-72.5 -27)"/><path class="cls-6" d="M792.77,455.05a9.27,9.27,0,1,1-10.7-7.5A9.18,9.18,0,0,1,792.77,455.05Z" transform="translate(-72.5 -27)"/><path class="cls-9" d="M802.87,615.08l-582.59,1.19a14,14,0,0,1-14.1-13.89l-.8-381.7a14,14,0,0,1,14-14L802,205.55a14,14,0,0,1,14.1,13.89l.8,381.7A14,14,0,0,1,802.87,615.08Z" transform="translate(-72.5 -27)"/><path class="cls-10" d="M791.47,607.79,208.87,609a14,14,0,0,1-14.1-13.89l-.8-381.7A14,14,0,0,1,208,199.44l582.59-1.19a14,14,0,0,1,14.1,13.89l.8,381.7A14,14,0,0,1,791.47,607.79Z" transform="translate(-72.5 -27)"/><path class="cls-11" d="M789.66,198.26l-580.1,1.18a15.24,15.24,0,0,0-15.29,15.18l0,13.18L805,226.55l0-13.17A15.23,15.23,0,0,0,789.66,198.26Z" transform="translate(-72.5 -27)"/><path class="cls-12" d="M210.26,609l87.65-.18-.8-381.21-103,.21.77,366.08A15.22,15.22,0,0,0,210.26,609Z" transform="translate(-72.5 -27)"/><path class="cls-13" d="M790.78,200.25a12,12,0,0,1,12.08,11.9l.79,381.7a11.77,11.77,0,0,1-3.51,8.43,12.05,12.05,0,0,1-8.54,3.51L209,607a12,12,0,0,1-12.07-11.89l-.8-381.7a11.79,11.79,0,0,1,3.51-8.43,12.1,12.1,0,0,1,8.54-3.52l582.59-1.19h0m0-2h0l-582.59,1.19a14,14,0,0,0-14,13.95l.8,381.7A14,14,0,0,0,209,609h0l582.6-1.19a14,14,0,0,0,14-13.95l-.79-381.7a14,14,0,0,0-14.08-13.89Z" transform="translate(-72.5 -27)"/><rect class="cls-10" x="210.17" y="568.57" width="78.34" height="11.33" rx="2.79" transform="translate(-73.67 -26.49) rotate(-0.12)"/><rect class="cls-10" x="207.53" y="244.85" width="77.28" height="76.43" rx="5.11" transform="matrix(1, 0, 0, 1, -73.08, -26.5)"/><rect class="cls-14" x="313.77" y="476.99" width="214.46" height="14.8" rx="3.64" transform="translate(-73.49 -26.14) rotate(-0.12)"/><rect class="cls-15" x="344.22" y="251.18" width="172.43" height="14.8" rx="3.64" transform="translate(-73.03 -26.12) rotate(-0.12)"/><rect class="cls-16" x="541.74" y="409.6" width="225.2" height="14.8" rx="3.64" transform="translate(-73.35 -25.66) rotate(-0.12)"/><rect class="cls-12" x="313.84" y="507.59" width="214.46" height="14.8" rx="3.64" transform="translate(-73.55 -26.14) rotate(-0.12)"/><rect class="cls-14" x="313.9" y="538.2" width="214.46" height="14.8" rx="3.64" transform="translate(-73.61 -26.14) rotate(-0.12)"/><rect class="cls-17" x="541.96" y="464.18" width="225.2" height="108.79" rx="6.01" transform="translate(-73.56 -25.66) rotate(-0.12)"/><path class="cls-14" d="M227.77,213.32a4.94,4.94,0,1,1-4.94-4.87A4.91,4.91,0,0,1,227.77,213.32Z" transform="translate(-72.5 -27)"/><ellipse class="cls-14" cx="171.23" cy="186.28" rx="4.94" ry="4.88"/><path class="cls-14" d="M269.56,213.23a4.94,4.94,0,1,1-4.95-4.87A4.9,4.9,0,0,1,269.56,213.23Z" transform="translate(-72.5 -27)"/><ellipse class="cls-17" cx="249.78" cy="231.81" rx="14.27" ry="14.11"/><rect class="cls-10" x="213.13" y="327.62" width="68.53" height="5.59" rx="1.37" transform="translate(-73.17 -26.49) rotate(-0.12)"/><rect class="cls-10" x="213.16" y="339.56" width="68.53" height="5.59" rx="1.37" transform="translate(-73.2 -26.49) rotate(-0.12)"/><path class="cls-14" d="M351.42,370.32l-17.88.18.13,74.07-15.42,0a9.81,9.81,0,0,1-9.88-9.73l-.28-137A9.89,9.89,0,0,1,318,288l33.19-.09Z" transform="translate(-72.5 -27)"/><path class="cls-14" d="M473,287.72v1a5,5,0,0,1,5,5l.3,144.54a5,5,0,0,1-1.46,3.55,5,5,0,0,1-3.54,1.47l-158.92.33a5,5,0,0,1-5-5l-.3-144.53a5,5,0,0,1,5-5L473,288.72v-1m0,0h0l-158.9.32a6,6,0,0,0-6,6l.3,144.54a6,6,0,0,0,6,6h0l158.91-.33a6,6,0,0,0,6-6L479,293.72a6,6,0,0,0-6-6Z" transform="translate(-72.5 -27)"/><path class="cls-14" d="M713.94,397.64l-197-44a11.5,11.5,0,0,1-8.79-13.76l22.15-97a11.65,11.65,0,0,1,13.92-8.69l197,44A11.52,11.52,0,0,1,750,292L727.86,389A11.64,11.64,0,0,1,713.94,397.64Z" transform="translate(-72.5 -27)"/><polygon class="cls-18" points="260.26 634.32 232.71 634.38 225.96 599.66 266.86 599.57 260.26 634.32"/><path class="cls-14" d="M306.09,626.64c0,2.83-.54,7.59,1.37,7.66s1.12-4.51,3.29-4.39c1.39.08-.65,15.09,4.6,15.45,3.61.24,2.95-7.36,3.32-12.12.25-3.23,4.42-2.6,4.46-.46,0,2.38-.12,4,0,6.69.19,4.53,7.24,3.33,7-2.73s0-10.15,0-10.15Z" transform="translate(-72.5 -27)"/><path class="cls-19" d="M299.49,647.61a7.81,7.81,0,0,1-1.62-.16,5.77,5.77,0,0,1-4.24-3.14c-2.81-5.89,4.59-16.93,4.88-17.42l.38,2c-.06.11-6.49,9.6-4,14.89a4.37,4.37,0,0,0,3.27,2.39,6.21,6.21,0,0,0,1.38.14c9.93,0,26.89-18.31,27.08-18.52.69-.83,2,0,1.53.64C327.4,629.31,310.16,647.59,299.49,647.61Z" transform="translate(-72.5 -27)"/><path class="cls-9" d="M589.09,172.77c-39.17-1.49-93.09,27.16-74,97.21-.42,5.92,3.17,10.14,7,9s.46-12.38.46-12.38c6.52-52.08,18.72-61.09,39.42-60.9l48.59-.1c12,1.75,33.83,10,37.1,51.74l12.1,2.21C660.72,229.43,653.35,175.2,589.09,172.77Z" transform="translate(-72.5 -27)"/><path class="cls-20" d="M589.09,166.66c-39.17-1.48-93.09,27.17-74,97.21l7.44-3.39c6.52-52.07,18.72-61.08,39.42-60.89l48.59-.1c12,1.75,34.41,12.28,37.68,54l11.52,0C660.72,223.33,653.35,169.09,589.09,166.66Z" transform="translate(-72.5 -27)"/><path class="cls-21" d="M581.08,167.81l-5.82,12.64s.7,7.12,7.76,7,8-3.37,8-3.37l.93-14.52Z" transform="translate(-72.5 -27)"/><path class="cls-21" d="M611,157.26c-6.63,11.59-9.57,15.2-18.24,16.94-11.23,2.26-23.82-5.23-18-23.69,4.78-15,12-12.73,19.08-12.16S618.15,144.73,611,157.26Z" transform="translate(-72.5 -27)"/><path class="cls-19" d="M584.62,148.11c-1.76-.91-4-.14-5.39,1.29a5.79,5.79,0,0,0-1.49,5.59,5.1,5.1,0,0,0-4.84,5.34c-1.85-4.27-.85-8.72-1.22-13.1s.12-9.14,3-12.5a14.59,14.59,0,0,1,4.3-3.28,22.5,22.5,0,0,1,20-.28,12.2,12.2,0,0,0,9,1.56c8.55-2,13.56,3.68,8.42,9,1.65.59,3.46,1.32,4.21,2.89a1.28,1.28,0,0,1,0,1.27,1.46,1.46,0,0,1-.78.48,9.41,9.41,0,0,1-4.5.35c.57.49,3.75.68,4.71,2.5,2.55,4.86-7.56,2.41-9.1,1.92,1.76.33,6.37,4,4.9,6.47-.29.49-6.53,4.08-13.08-3.44a11.88,11.88,0,0,0-5.68-4c-1.77-.47-3.62.18-5.33.82-1.25.46-4.45,2.38-5.36,1.24S586.66,149.11,584.62,148.11Z" transform="translate(-72.5 -27)"/><path class="cls-21" d="M649.5,253.47c-1.73,5.91-3.49,6.5-1.38,7.44s3.8-2.37,3.8-2.37l9.72,1.91s-2.19-6.24-3.72-7S649.5,253.47,649.5,253.47Z" transform="translate(-72.5 -27)"/><path class="cls-21" d="M522.57,260.48c1.27,3.12,1.62,3.14,3.38,6.89,3.38,7.16-4.53,18.49-9.45,6.12-1.35-3.39-1.37-9.62-1.37-9.62Z" transform="translate(-72.5 -27)"/><path class="cls-19" d="M598.46,131.92c3.87.36,7.53-1.06,11.34-1.43,3.17-.3,6.89.27,8.84,3.08.25.35.81,0,.58-.34-1.77-2.87-5.28-3.75-8.46-3.54-4.15.26-8.11,2-12.3,1.66-.37,0-.36.54,0,.57Z" transform="translate(-72.5 -27)"/><path class="cls-19" d="M601.22,128.89c-4.13,1.15-8.3-1-12.47-.66a19.65,19.65,0,0,0-10.59,4.83c-.37.31.13,1,.53.68,3.18-2.31,6.75-4.43,10.79-4.57s8,1.81,11.94.44a.37.37,0,0,0-.2-.72Z" transform="translate(-72.5 -27)"/><path class="cls-19" d="M575.41,134.87a10.64,10.64,0,0,0-3.73,3.48,11.17,11.17,0,0,0-1.47,5,22.58,22.58,0,0,0,.5,5.91,19.55,19.55,0,0,0,.6,2.73,2,2,0,0,0,1.24,1.36c.37.13.6-.44.26-.64a2.3,2.3,0,0,1-.91-1.66c-.2-.86-.38-1.73-.53-2.59a20.3,20.3,0,0,1-.4-5.21,9.61,9.61,0,0,1,4.67-7.92c.25-.17,0-.57-.23-.41Z" transform="translate(-72.5 -27)"/><path class="cls-19" d="M624.21,145.59a7.66,7.66,0,0,0-3.76-3.23,6.59,6.59,0,0,0-5-.18c-.26.11-.14.59.15.55a9.44,9.44,0,0,1,4.51.31,7.12,7.12,0,0,1,3.62,2.81.26.26,0,0,0,.45-.26Z" transform="translate(-72.5 -27)"/><path class="cls-22" d="M409,437.58c20.54,7.46,38.37,30.76,34.28,47.7-4.62,19.13-18,27.38-18,27.38l-4.2-7.68s10.67-16.5,9.74-24.29c-1.48-12.47-17.41-20.8-17.41-20.8Z" transform="translate(-72.5 -27)"/><path class="cls-19" d="M358.4,653.43s-12.61,5-15.76,7.88l25,0,0-7.85Z" transform="translate(-72.5 -27)"/><path class="cls-19" d="M413.61,653s3.58,4.11,4.23,8.22l-17,0A19.61,19.61,0,0,1,404,653Z" transform="translate(-72.5 -27)"/><path class="cls-23" d="M414.64,653.32l-11.63,0c.23-13.56-2.6-59.77-5.33-94.31-1.61-20.26-3.19-36.54-4.12-39.83l6.23-1.36,23.53-5.17C427.34,530.86,418.05,614.39,414.64,653.32Z" transform="translate(-72.5 -27)"/><path class="cls-24" d="M371.87,518.47c-9.07,14.14-11.42,116.32-15.22,135.25l11,.62A981.49,981.49,0,0,1,407.36,517.5Z" transform="translate(-72.5 -27)"/><path class="cls-9" d="M412,517.5c-5.33,14.3-10.11,28.3-14.33,41.53-1.61-20.26-3.19-36.54-4.12-39.83l6.23-1.36Z" transform="translate(-72.5 -27)"/><path class="cls-24" d="M371.87,518.47c-9.07,14.14-11.42,116.32-15.22,135.25l11,.62A981.49,981.49,0,0,1,407.36,517.5Z" transform="translate(-72.5 -27)"/><path class="cls-21" d="M378.81,404.4S371.74,431,389.39,431l-1,6.8,13.4,1.45-2.9-9.48S401.5,413,401.68,410C402,404.36,386,394.41,378.81,404.4Z" transform="translate(-72.5 -27)"/><rect class="cls-19" x="329.98" y="374.56" width="5.2" height="21.73" transform="translate(-73.25 -26.35) rotate(-0.11)"/><rect class="cls-18" x="313.84" y="366.3" width="37.43" height="8.26" rx="1.95" transform="matrix(1, 0, 0, 1, -73.22, -26.35)"/><path class="cls-21" d="M328.56,402c-.14-4.93-4.25-3.64-2-11.69,1.4-5,11.79.8,10.49,4.25s-2.78,8.9-2.78,8.9Z" transform="translate(-72.5 -27)"/><path class="cls-13" d="M389.52,436.23c-26.39,1.73-28.13,10.53-39.94,9.15-17.48-2-14.42-34.14-12.26-45.65l-10.44,0s-18.82,73.13,40.62,59.61c-2.28,12.81,12.5,33.73-1.83,59.12,22.56,6.06,43.62,7.55,61.65-.12-3.16-4.2,6.47-46.7-12.38-77.29C411.26,435.1,391.45,436.11,389.52,436.23Z" transform="translate(-72.5 -27)"/><path class="cls-22" d="M389.52,436.23c-26.39,1.73-28.13,10.53-39.94,9.15-17.48-2-14.42-34.14-12.26-45.65l-10.44,0s-18.82,73.13,40.62,59.61c-2.28,12.81,12.5,33.73-1.83,59.12,22.56,6.06,43.62,7.55,61.65-.12-3.16-4.2,6.47-46.7-12.38-77.29C411.26,435.1,391.45,436.11,389.52,436.23Z" transform="translate(-72.5 -27)"/><path class="cls-25" d="M385.88,409.51c1.72.43,3.73.76,4.65,2.2a5.38,5.38,0,0,1,.49,3.2,2.69,2.69,0,0,1,2.84-1.82,2.62,2.62,0,0,1,2.3,2.41,4.36,4.36,0,0,1-.38,1.61,19.32,19.32,0,0,1-2,3.7c2.16.78,4,7,5,9,3.63-.9,11.69-4,12.4-16.68.32-5.91-1.5-13-8-16.94-4.58-2.78-12.18-2.82-17.43-1.49-4.25,1.07-11,5.27-7.88,10.19C379.55,407.33,383,408.79,385.88,409.51Z" transform="translate(-72.5 -27)"/><path class="cls-25" d="M408.49,401.42c2.46-.81,5.57-.38,7.05,1.65,1.15,1.58,1,3.66,1.42,5.55a4.27,4.27,0,0,0,1.22,2.47,5.35,5.35,0,0,0,3.26,1c2.84.15,5.71-.21,8.51.26s5.67,2,6.47,4.62c.44,1.44.2,3,.73,4.41.79,2.11,3.06,3.31,5,4.53a32.8,32.8,0,0,1,10.36,10.21,18.32,18.32,0,0,1,3.1,8.46c.2,3,2.39,7,1.81,9.95-.63,3.19-3.81,7.52-10.09,9.51-10.85,3.46-14.28,4.95-24.68-1.16-1.25-.73-3.7-3.24-4.83-4.14a5.43,5.43,0,0,1-1.77-2.78c-.86-2.95.14-6.13,1.7-8.81s3.65-5.06,5.24-7.73a9.58,9.58,0,0,0,1.64-5.22,2.75,2.75,0,0,0-.72-1.9,3.2,3.2,0,0,0-1.68-.75c-2.28-.44-4.79,0-6.86-1a4.78,4.78,0,0,1-2.5-5.46c.41-1.38,1.46-2.54,1.76-4,.44-2-.84-4.1-2.62-5.28a15.5,15.5,0,0,0-6.12-2,7.05,7.05,0,0,1-3-.95,4,4,0,0,1-1.53-3.32C401.42,405.64,404.69,402.67,408.49,401.42Z" transform="translate(-72.5 -27)"/><path class="cls-25" d="M406.64,412a6.2,6.2,0,0,1,5.51,6.55c-.36,3.5-3.23,6.16-3.62,9.68a5.14,5.14,0,0,0,1.2,4.11A6.19,6.19,0,0,0,413.4,434a30.31,30.31,0,0,0,4.47.08c1.46,0,3.12.19,4.13,1.39,1.22,1.44.82,3.59.2,5.2-.72,1.86-1.77,3.55-1.89,5.59,0,.43.61.41.66,0,.38-3.35,3.45-6.38,2.32-9.91-1-3.19-4.71-3-7.42-2.93a8.59,8.59,0,0,1-4.76-.93,4.38,4.38,0,0,1-1.86-4.63c.56-3.53,3.57-6.3,3.5-10a6.69,6.69,0,0,0-6.11-6.31c-.24,0-.23.34,0,.36Z" transform="translate(-72.5 -27)"/><path class="cls-25" d="M379.57,396.21a24.93,24.93,0,0,1,11.92-3.61,22.51,22.51,0,0,1,11.57,2.86,25.61,25.61,0,0,1,5.39,4c.28.28.7-.14.43-.44A22.66,22.66,0,0,0,386,392.78a20.49,20.49,0,0,0-6.52,3.18c-.14.11,0,.34.14.25Z" transform="translate(-72.5 -27)"/><polygon class="cls-21" points="645.33 400.55 640.96 409.23 651.63 413.54 652.77 403.55 645.33 400.55"/><path class="cls-21" d="M724.26,399.31C700.08,409.72,710,435,724.71,432c7.17-1.44,10.8-24.26,10.8-24.26Z" transform="translate(-72.5 -27)"/><path class="cls-26" d="M732.3,395.72a12.54,12.54,0,0,0-2.86-4.07c-1.31-1-3.39-1.37-4.62-.24-1.62,1.5-.67,4.3,1,5.77-1.42.17-3.11-.8-4.15.17-.79.73-.52,2-.06,3a13.36,13.36,0,0,0,4.95,5.61c-1.22.69-2.65,2-1.91,3.22.2.33.54.55.75.89.46.77,0,1.75-.46,2.52a42.75,42.75,0,0,1-2.47,3.62c.83-1.12,2.86-.66,3.47.6a3.61,3.61,0,0,1-.86,3.85,3.86,3.86,0,0,1-1.95,1.23c-.67.16-3.6,9.12-1.31,10.87,2.82,2.17,12.44.29,13.83-2.16,1.39,1.49,3.42,2.62,5.43,2.22s3.55-2.85,2.47-4.57a5.83,5.83,0,0,0,6.3-1.66,5.7,5.7,0,0,0,.52-6.44c1.19-.35,1.43-1.94,1.12-3.12a7.25,7.25,0,0,0-5-5.09,2.46,2.46,0,0,0,2.25-2.41,5,5,0,0,0-1.35-3.29c-2.27-2.77-5-3.51-8.31-3.93S733.8,398.47,732.3,395.72Z" transform="translate(-72.5 -27)"/><path class="cls-19" d="M709.63,651.77s-14.15,6.72-16,8.82c0,0,27.85,1.24,30-.06s-4.46-8.78-4.46-8.78Z" transform="translate(-72.5 -27)"/><path class="cls-19" d="M762.28,644.17s-12.44,9.48-13.86,11.91c0,0,29.36-4.31,29.36-6.2s-6.2-7.67-6.2-7.67Z" transform="translate(-72.5 -27)"/><path class="cls-27" d="M723.32,522c-.53,2.85-19.9,78.5,35.54,123.85l16.06-3.64s-18.69-17.34-27.5-48.53c-8.33-29.51-1.72-32.4,3.28-48.65,5.53-18,1.42-31,1.42-31Z" transform="translate(-72.5 -27)"/><path class="cls-28" d="M696.82,521.78c-8.79,20.78-23.88,91.57,9,131.43l16.42,0s-12.93-14-14.38-46.55,6.92-46.81,12.82-57.54,11.35-29,11.35-29Z" transform="translate(-72.5 -27)"/><path class="cls-29" d="M685.23,393c-4.36,15.21-5.8,43.31,16.06,54.64l14.62-3.53s-26.36-13.67-20.71-48.22Z" transform="translate(-72.5 -27)"/><path class="cls-29" d="M644.94,385.22l11.35-1.38S654.93,431,710,435c42,3,45.33,81,45.33,81-13.55,9-36.29,11.76-65.43,9.69,0,0,1.86-55.65-2.77-70.88C687.12,454.8,641.37,440.56,644.94,385.22Z" transform="translate(-72.5 -27)"/><path class="cls-21" d="M631.06,376.66c-1.92,2.2,6.1,5,13.88,8.56l10-1.21a38.51,38.51,0,0,0,0-4c-.13-2.05-1.17-3.22-2.35-1.46s-6.22,2.36-8.59.75S633,374.46,631.06,376.66Z" transform="translate(-72.5 -27)"/><path class="cls-21" d="M685.23,393c-3.65-3.55-2.68-3.34-2.68-3.34l11.14,2.49s2.45-5.37,4.52-5.52-1.56,3.7-.73,5.13-2.28,4.13-2.28,4.13Z" transform="translate(-72.5 -27)"/><path class="cls-26" d="M738.62,400.67c2.63.45,5.4.81,7.37,2.81,1.59,1.61,2.24,4.36.81,6.27-.31.42.4,1,.73.57,1.75-2.17,1.16-5.25-.57-7.24-1.94-2.23-5.42-3.07-8.27-2.94-.29,0-.39.48-.07.53Z" transform="translate(-72.5 -27)"/><path class="cls-26" d="M748.77,421.09c1.59.85,2.93,2.43,2.37,4.33s-2.42,3-4,4a.34.34,0,0,0,.34.58c1.9-1.06,4-2.41,4.42-4.7.42-2.12-1-3.87-2.83-4.79-.35-.18-.67.35-.31.54Z" transform="translate(-72.5 -27)"/><path class="cls-26" d="M723.29,432.58c4.89,3,12.28,2.43,16.29-1.86.33-.34-.16-.8-.51-.51a14.84,14.84,0,0,1-7.48,3.36,14.08,14.08,0,0,1-8.08-1.36c-.25-.12-.46.23-.22.37Z" transform="translate(-72.5 -27)"/><path class="cls-26" d="M749.39,404.19a4.12,4.12,0,0,1,1.27,4.37c-.47,1.84-1.87,3.4-3.08,4.8-.23.27.14.65.39.4,1.53-1.51,3.12-3.17,3.44-5.39A4.23,4.23,0,0,0,749.5,404a.11.11,0,0,0-.11.2Z" transform="translate(-72.5 -27)"/><polygon class="cls-30" points="349.26 27.42 344.72 16.45 388.54 0 349.26 27.42"/><polygon class="cls-18" points="351.47 20.66 388.54 0 362.73 25.92 351.47 20.66"/><polygon class="cls-18" points="334.69 11.98 388.54 0 344.72 16.45 334.69 11.98"/><polygon class="cls-18" points="351.47 20.66 349.26 27.42 355.95 22.75 351.47 20.66"/><path class="cls-31" d="M416.61,53c-11.43-1.92-27,9.52-20.28,21.44,2.27,4.06,14,2.3,13.13-2.19-.42-2.14-3.08-3.06-5.28-2.81-12.78,1.45-13.29,12-12.72,14.75,2.92,13.94,24.52,9.22,31.79,7.26" transform="translate(-72.5 -27)"/></g></g></svg>